<svg width="16" height="13" viewBox="0 0 16 13" fill="none" xmlns="http://www.w3.org/2000/svg">
<g id="Vector">
<path id="Vector-20" fill-rule="evenodd" clip-rule="evenodd" d="M6.68911 3.84996C7.19251 3.09341 7.06598 2.0823 6.39168 1.47312C5.71738 0.863941 4.69866 0.840401 3.99694 1.41779C3.29522 1.99517 3.12213 2.99935 3.59004 3.77835C4.05796 4.55735 5.02577 4.87624 5.86511 4.52796C6.20053 4.38801 6.48717 4.15215 6.68911 3.84996Z" stroke="#212125" stroke-width="1.5" stroke-linecap="round" stroke-linejoin="round"/>
<path id="Vector-22" fill-rule="evenodd" clip-rule="evenodd" d="M9.31108 11.0072C8.80768 10.2506 8.93421 9.23953 9.60851 8.63035C10.2828 8.02117 11.3015 7.99763 12.0032 8.57501C12.705 9.1524 12.8781 10.1566 12.4101 10.9356C11.9422 11.7146 10.9744 12.0335 10.1351 11.6852C9.79966 11.5452 9.51301 11.3094 9.31108 11.0072V11.0072Z" stroke="#212125" stroke-width="1.5" stroke-linecap="round" stroke-linejoin="round"/>
<path id="Vector-23" d="M7 2.07617C6.58579 2.07617 6.25 2.41196 6.25 2.82617C6.25 3.24039 6.58579 3.57617 7 3.57617V2.07617ZM15 3.57617C15.4142 3.57617 15.75 3.24039 15.75 2.82617C15.75 2.41196 15.4142 2.07617 15 2.07617V3.57617ZM3.327 3.57617C3.74121 3.57617 4.077 3.24039 4.077 2.82617C4.077 2.41196 3.74121 2.07617 3.327 2.07617V3.57617ZM1 2.07617C0.585786 2.07617 0.25 2.41196 0.25 2.82617C0.25 3.24039 0.585786 3.57617 1 3.57617V2.07617ZM9 10.7341C9.41421 10.7341 9.75 10.3983 9.75 9.98413C9.75 9.56992 9.41421 9.23413 9 9.23413V10.7341ZM1 9.23413C0.585786 9.23413 0.25 9.56992 0.25 9.98413C0.25 10.3983 0.585786 10.7341 1 10.7341V9.23413ZM12.6719 9.23437C12.2577 9.23437 11.9219 9.57016 11.9219 9.98437C11.9219 10.3986 12.2577 10.7344 12.6719 10.7344V9.23437ZM14.9989 10.7344C15.4131 10.7344 15.7489 10.3986 15.7489 9.98437C15.7489 9.57016 15.4131 9.23437 14.9989 9.23437V10.7344ZM7 3.57617H15V2.07617H7V3.57617ZM3.327 2.07617H1V3.57617H3.327V2.07617ZM9 9.23413H1V10.7341H9V9.23413ZM12.6719 10.7344H14.9989V9.23437H12.6719V10.7344Z" fill="#212125"/>
</g>
</svg>
