<svg width="32" height="33" viewBox="0 0 32 33" fill="none" xmlns="http://www.w3.org/2000/svg">
<g id="mingcute:telegram-fill" clip-path="url(#clip0_4079_15225)">
<g id="Group">
<path id="Vector" fill-rule="evenodd" clip-rule="evenodd" d="M26.3692 6.38318C26.6987 6.2445 27.0593 6.19667 27.4136 6.24467C27.7678 6.29267 28.1027 6.43474 28.3834 6.6561C28.6642 6.87745 28.8804 7.17 29.0097 7.50329C29.139 7.83658 29.1766 8.19844 29.1185 8.55118L26.0945 26.8938C25.8012 28.6632 23.8599 29.6778 22.2372 28.7965C20.8799 28.0592 18.8639 26.9232 17.0505 25.7378C16.1439 25.1445 13.3665 23.2445 13.7079 21.8925C14.0012 20.7365 18.6679 16.3925 21.3345 13.8098C22.3812 12.7952 21.9039 12.2098 20.6679 13.1432C17.5985 15.4605 12.6705 18.9845 11.0412 19.9765C9.60386 20.8512 8.85453 21.0005 7.95853 20.8512C6.32386 20.5792 4.80786 20.1578 3.57053 19.6445C1.89853 18.9512 1.97986 16.6525 3.5692 15.9832L26.3692 6.38318Z" fill="#212125"/>
</g>
</g>
<defs>
<clipPath id="clip0_4079_15225">
<rect width="32" height="32" fill="white" transform="translate(0 0.476562)"/>
</clipPath>
</defs>
</svg>
