<svg width="33" height="33" viewBox="0 0 33 33" fill="none" xmlns="http://www.w3.org/2000/svg">
<g id="basil:vk-solid">
<path id="Vector" d="M29.172 24.9847H26.1293C24.9787 24.9847 24.632 24.0527 22.5693 21.9887C20.7667 20.2514 20.0053 20.0353 19.5493 20.0353C18.9187 20.0353 18.7467 20.2087 18.7467 21.0767V23.8127C18.7467 24.5527 18.5067 24.986 16.5733 24.986C14.6977 24.86 12.8789 24.2902 11.2666 23.3236C9.65437 22.3569 8.29483 21.021 7.3 19.426C4.93785 16.486 3.29428 13.0355 2.5 9.34868C2.5 8.89268 2.67333 8.47935 3.54267 8.47935H6.58267C7.364 8.47935 7.64533 8.82735 7.952 9.63135C9.428 13.9753 11.9467 17.754 12.9693 17.754C13.3613 17.754 13.532 17.5807 13.532 16.6033V12.1287C13.4027 10.0873 12.3187 9.91535 12.3187 9.17668C12.3324 8.9818 12.4215 8.79995 12.5672 8.66974C12.7128 8.53953 12.9035 8.47123 13.0987 8.47935H17.8773C18.5307 8.47935 18.7467 8.80468 18.7467 9.58601V15.626C18.7467 16.278 19.0267 16.494 19.224 16.494C19.616 16.494 19.9173 16.278 20.636 15.5607C22.1765 13.682 23.435 11.5889 24.372 9.34735C24.4679 9.07822 24.6492 8.84785 24.8883 8.69137C25.1273 8.53489 25.411 8.4609 25.696 8.48068H28.7373C29.6493 8.48068 29.8427 8.93668 29.6493 9.58735C28.5432 12.0652 27.1744 14.4174 25.5667 16.6033C25.2387 17.1033 25.108 17.3633 25.5667 17.95C25.868 18.406 26.9347 19.2967 27.6507 20.1433C28.6933 21.1833 29.5587 22.386 30.2133 23.7033C30.4747 24.5513 30.04 24.9847 29.172 24.9847Z" fill="#212125"/>
</g>
</svg>
