<svg width="44" height="45" viewBox="0 0 44 45" fill="none" xmlns="http://www.w3.org/2000/svg">
<g id="SM">
<rect y="0.476562" width="44" height="44" rx="4" fill="#E5E3DB"/>
<path id="Vector_WA" d="M22 9.47656C29.1799 9.47656 35 15.2967 35 22.4766C35 29.6564 29.1799 35.4765 22 35.4765C19.7026 35.4803 17.4457 34.8723 15.461 33.715L9.00522 35.4765L10.7628 29.0181C9.60464 27.0329 8.99618 24.775 9.00002 22.4766C9.00002 15.2967 14.8201 9.47656 22 9.47656ZM17.5696 16.3666L17.3096 16.377C17.1413 16.3872 16.9768 16.4314 16.826 16.507C16.685 16.5868 16.5563 16.6866 16.4438 16.8034C16.2878 16.9503 16.1994 17.0777 16.1045 17.2012C15.6237 17.8263 15.3648 18.5939 15.3687 19.3826C15.3713 20.0196 15.5377 20.6397 15.7977 21.2195C16.3294 22.3921 17.2043 23.6336 18.3587 24.7841C18.6369 25.061 18.9099 25.3392 19.2037 25.5979C20.6381 26.8608 22.3474 27.7715 24.1957 28.2577L24.9341 28.3708C25.1746 28.3838 25.4151 28.3655 25.6569 28.3538C26.0355 28.3343 26.4052 28.2318 26.7398 28.0536C26.91 27.9659 27.0762 27.8704 27.2377 27.7675C27.2377 27.7675 27.2936 27.7311 27.4002 27.6505C27.5757 27.5205 27.6836 27.4283 27.8292 27.2762C27.9371 27.1644 28.0307 27.0331 28.1022 26.8836C28.2036 26.6717 28.305 26.2674 28.3466 25.9307C28.3778 25.6733 28.3687 25.5329 28.3648 25.4458C28.3596 25.3067 28.2439 25.1624 28.1178 25.1013L27.3612 24.762C27.3612 24.762 26.2302 24.2693 25.5386 23.9547C25.4662 23.9231 25.3887 23.905 25.3098 23.9014C25.2209 23.8922 25.131 23.9022 25.0462 23.9307C24.9615 23.9592 24.8838 24.0055 24.8184 24.0665C24.8119 24.0639 24.7248 24.138 23.7849 25.2768C23.731 25.3492 23.6567 25.404 23.5715 25.4341C23.4863 25.4642 23.394 25.4683 23.3065 25.4458C23.2218 25.423 23.1388 25.3944 23.0582 25.36C22.897 25.2924 22.8411 25.2664 22.7306 25.2196C21.9845 24.894 21.2937 24.454 20.6831 23.9157C20.5193 23.7727 20.3672 23.6167 20.2112 23.4659C19.6998 22.9761 19.2541 22.422 18.8852 21.8175L18.8085 21.694C18.7534 21.611 18.7089 21.5214 18.6759 21.4275C18.6265 21.2364 18.7552 21.083 18.7552 21.083C18.7552 21.083 19.0711 20.7372 19.218 20.55C19.361 20.368 19.4819 20.1912 19.5599 20.0651C19.7133 19.8181 19.7614 19.5646 19.6808 19.3683C19.3168 18.4791 18.9398 17.5938 18.5524 16.715C18.4757 16.5408 18.2482 16.416 18.0415 16.3913C17.9713 16.3835 17.9011 16.3757 17.8309 16.3705C17.6563 16.3618 17.4814 16.3635 17.307 16.3757L17.5696 16.3666Z" fill="#212125"/>
</g>
</svg>
