<svg width="12" height="12" viewBox="0 0 12 12" fill="none" xmlns="http://www.w3.org/2000/svg">
<g id="Vector">
<path id="Vector-6" d="M0.568616 10.0857C0.174014 10.4721 0.167367 11.1052 0.55377 11.4998C0.940173 11.8944 1.5733 11.9011 1.96791 11.5147L0.568616 10.0857ZM11.4998 2.18085C11.8944 1.79445 11.9011 1.16132 11.5146 0.766713C11.1282 0.372111 10.4951 0.365464 10.1005 0.751867L11.4998 2.18085ZM1.89984 0.485704C1.50524 0.0993012 0.872107 0.105948 0.485704 0.500551C0.0993012 0.895153 0.105948 1.52828 0.500551 1.91469L1.89984 0.485704ZM10.0324 11.2485C10.4271 11.6349 11.0602 11.6283 11.4466 11.2337C11.833 10.8391 11.8263 10.2059 11.4317 9.81954L10.0324 11.2485ZM1.96791 11.5147L11.4998 2.18085L10.1005 0.751867L0.568616 10.0857L1.96791 11.5147ZM0.500551 1.91469L10.0324 11.2485L11.4317 9.81954L1.89984 0.485704L0.500551 1.91469Z" fill="#212125"/>
</g>
</svg>
