<svg width="33" height="32" viewBox="0 0 33 32" fill="none" xmlns="http://www.w3.org/2000/svg">
<g id="mingcute:telegram-fill" clip-path="url(#clip0_4067_11704)">
<g id="Group">
<path id="Vector" fill-rule="evenodd" clip-rule="evenodd" d="M26.8692 5.90662C27.1987 5.76794 27.5593 5.72011 27.9136 5.76811C28.2678 5.81611 28.6027 5.95818 28.8834 6.17953C29.1642 6.40089 29.3804 6.69344 29.5097 7.02673C29.639 7.36002 29.6766 7.72187 29.6185 8.07462L26.5945 26.4173C26.3012 28.1866 24.3599 29.2013 22.7372 28.32C21.3799 27.5826 19.3639 26.4466 17.5505 25.2613C16.6439 24.668 13.8665 22.768 14.2079 21.416C14.5012 20.26 19.1679 15.916 21.8345 13.3333C22.8812 12.3186 22.4039 11.7333 21.1679 12.6666C18.0985 14.984 13.1705 18.508 11.5412 19.5C10.1039 20.3746 9.35453 20.524 8.45853 20.3746C6.82386 20.1026 5.30786 19.6813 4.07053 19.168C2.39853 18.4746 2.47986 16.176 4.0692 15.5066L26.8692 5.90662Z" fill="#212125"/>
</g>
</g>
<defs>
<clipPath id="clip0_4067_11704">
<rect width="32" height="32" fill="white" transform="translate(0.5)"/>
</clipPath>
</defs>
</svg>
