<svg width="25" height="24" viewBox="0 0 25 24" fill="none" xmlns="http://www.w3.org/2000/svg">
<g id="icons">
<g id="Vector">
<path d="M4.12785 8.50458H20.8363L14.2686 3.28996C13.6953 2.93783 14.2328 3.00515 12.4821 3.00515C10.7314 3.00515 11.1255 3.00515 10.6955 3.28996L4.12785 8.50458ZM4.12785 8.50458V9.79918L10.4703 14.8274L11.4941 15.5006C12.5179 16.0857 12.5179 16.0857 13.5059 15.5006L14.5297 14.8274L20.8722 9.79918V8.50458L22.5 9.79918V21H2.5V9.79918L4.12785 8.50458Z" stroke="#2C6849" stroke-width="1.4" stroke-linecap="round" stroke-linejoin="round"/>
<path d="M4.12785 8.50458H20.8363L14.2686 3.28996C13.6953 2.93783 14.2328 3.00515 12.4821 3.00515C10.7314 3.00515 11.1255 3.00515 10.6955 3.28996L4.12785 8.50458ZM4.12785 8.50458V9.79918L10.4703 14.8274L11.4941 15.5006C12.5179 16.0857 12.5179 16.0857 13.5059 15.5006L14.5297 14.8274L20.8722 9.79918V8.50458L22.5 9.79918V21H2.5V9.79918L4.12785 8.50458Z" stroke="black" stroke-opacity="0.2" stroke-width="1.4" stroke-linecap="round" stroke-linejoin="round"/>
</g>
</g>
</svg>
