<svg width="1155" height="1257" viewBox="0 0 1155 1257" fill="none" xmlns="http://www.w3.org/2000/svg">
<path d="M545.912 617.962C545.6 607.555 549.652 584.6 568.352 576.037C591.728 565.333 616.039 556.412 637.545 565.333C659.05 574.253 676.816 591.201 680.556 612.61C684.296 634.018 682.426 655.427 672.141 664.347C661.855 673.268 657.18 688.432 616.039 692.892C605.753 692.892 582.191 689.859 570.222 677.728C555.262 662.563 548.717 657.211 545.912 630.45C544.977 640.857 546.847 664.526 561.807 675.944C580.508 690.216 591.728 700.92 617.909 698.244C638.854 696.103 652.817 687.243 657.18 683.08L671.206 669.699C674.946 666.131 685.231 645.615 686.166 640.263C687.101 634.911 689.906 611.718 679.621 594.769L679.272 594.195C669.165 577.539 661.728 565.282 650.635 560.872C639.415 556.412 621.649 551.952 607.624 553.736C593.598 555.52 573.027 564.441 567.417 568.901C561.807 573.361 539.366 591.201 545.912 617.962Z" fill="#CFE2D4"/>
<path d="M590.793 766.038C581.817 766.038 562.119 759.497 553.392 756.226C561.807 765.146 588.923 767.822 590.793 767.822C592.663 767.822 595.468 771.39 605.754 775.85C616.039 780.31 631.934 775.85 636.609 774.958C641.285 774.066 653.44 770.498 658.115 768.714C662.79 766.93 693.646 753.55 711.412 741.061C729.177 728.573 724.502 730.357 735.723 720.545C746.943 710.733 759.098 681.296 760.968 675.944C762.838 670.591 767.514 638.479 767.514 629.558C767.514 620.638 765.643 590.309 763.773 576.037C762.277 564.619 751.93 551.655 746.943 546.6C741.644 540.951 728.616 527.868 718.892 520.731C706.737 511.811 675.881 495.755 658.115 488.619C640.35 481.482 616.974 472.562 601.078 472.562C585.183 472.562 579.573 481.482 563.677 492.187C547.782 502.891 521.601 515.379 501.03 533.22C480.46 551.06 471.109 584.065 468.304 595.661C465.499 607.258 465.499 632.234 464.564 633.126C463.629 634.018 462.694 650.075 463.629 659.887C464.564 669.699 470.174 686.648 476.719 692.892C483.265 699.136 481.395 695.568 493.55 709.841C501.707 719.418 514.382 730.084 522.302 736.256C511.014 726.664 498.362 708.187 491.68 701.812C484.2 694.676 480.46 687.54 473.914 677.728C467.369 667.915 472.044 650.075 471.109 639.371C470.361 630.807 470.798 620.935 471.109 617.07C472.044 578.713 499.16 548.384 516.926 528.76C534.691 509.135 566.482 501.999 569.287 497.539C572.092 493.079 585.183 485.05 595.468 480.59C605.753 476.13 627.259 479.698 642.22 488.619C657.18 497.539 676.816 501.107 689.906 508.243C702.997 515.379 742.268 539.464 752.553 557.304C762.839 575.145 762.838 592.093 763.773 603.69C764.708 615.286 761.903 626.882 760.968 640.263C760.033 653.643 758.163 658.995 751.618 682.188C745.073 705.38 717.022 727.681 703.932 738.385C690.841 749.09 640.35 771.39 626.324 774.066C615.104 776.207 597.962 769.606 590.793 766.038Z" fill="#CFE2D4"/>
<path d="M664.66 889.137C694.893 882.001 763.96 861.663 798.37 837.4C841.381 807.071 865.692 773.174 876.912 747.305C888.132 721.437 903.093 656.319 901.223 634.911C904.963 625.098 912.256 602.798 911.508 592.093C910.573 578.713 914.313 560.872 879.717 533.22C871.925 518.947 852.227 485.586 835.771 466.318C815.2 442.233 814.265 426.177 755.358 399.416C736.969 390.199 694.02 370.693 669.335 366.411C638.479 361.059 634.739 338.759 557.132 364.627C479.525 390.496 419.683 412.796 395.372 451.154C371.061 489.511 357.971 503.783 351.426 523.408C344.88 543.032 334.595 590.309 331.79 623.314C328.05 632.829 321.318 653.821 324.31 661.671C328.05 671.483 338.335 688.432 343.945 703.596C349.555 718.761 369.191 762.47 383.217 778.526C397.242 794.583 432.773 830.264 454.279 845.428C459.889 853.159 475.036 869.87 490.745 874.865C506.453 879.86 530.328 879.92 540.301 879.325C511.316 876.649 493.55 870.405 478.589 860.593C466.621 852.743 460.512 844.833 458.954 841.86C433.708 824.019 379.476 753.55 373.866 731.249C368.256 708.949 339.27 655.427 345.815 649.183C352.361 642.939 355.166 595.661 361.711 563.549C368.256 531.436 381.346 514.487 390.697 494.863C398.177 479.163 423.111 453.235 434.643 442.233C449.292 429.745 494.859 399.773 559.937 379.792C641.285 354.815 650.635 377.116 665.595 377.116C680.556 377.116 711.412 386.928 754.423 405.66C797.435 424.393 815.2 448.478 821.745 457.398C828.291 466.318 842.316 486.835 860.082 516.271C877.847 545.708 869.432 533.22 890.002 555.52C910.573 577.821 891.872 616.178 886.262 629.558C880.652 642.939 885.327 650.075 884.392 664.347C883.457 678.62 859.147 745.522 842.316 774.958C825.485 804.395 793.694 821.344 769.384 838.292C745.073 855.24 676.816 881.109 664.66 883.785C652.505 886.461 648.765 891.813 635.674 893.597C625.202 895.025 567.729 884.677 540.301 879.325C546.223 880.514 563.116 884.142 583.313 889.137C608.559 895.381 638.48 898.057 646.895 896.273C653.627 894.846 661.544 890.921 664.66 889.137Z" fill="#CFE2D4"/>
<path d="M697.6 946.142C737.261 930.348 818.207 896.973 826.421 889.137C834.649 881.287 861.64 865.053 874.107 857.916C885.327 850.78 910.012 832.048 918.988 814.207C930.209 791.907 926.469 789.231 932.079 774.958C937.689 760.686 955.455 710.733 958.26 698.244C961.065 685.756 965.74 641.155 965.74 629.558C965.74 617.962 975.09 600.122 974.155 577.821C973.22 555.52 956.39 540.356 946.104 530.544C935.819 520.731 929.274 481.482 904.028 451.154C883.831 426.89 868.185 408.336 862.887 402.092C854.16 390.496 826.607 362.486 786.214 343.219C735.723 319.134 700.191 309.322 648.765 302.186C636.921 298.617 609.868 291.303 596.403 290.589C579.573 289.697 587.053 300.401 575.833 301.294C564.612 302.186 470.174 320.918 425.293 352.139C380.411 383.36 366.386 386.036 350.49 411.012C334.595 435.989 324.31 445.801 306.544 471.67C301.246 480.59 289.714 503.605 285.973 524.299C281.298 550.168 271.948 576.037 271.013 611.718C265.091 625.098 254.182 654.892 257.923 667.023C262.598 682.188 267.273 692.892 280.363 708.056C284.415 723.221 295.137 757.653 305.609 774.066C318.699 794.583 345.815 839.184 395.372 879.325C399.424 881.704 410.519 888.959 422.488 898.95C437.448 911.438 446.798 923.034 472.044 931.955C492.241 939.091 512.251 939.685 519.731 939.091C500.719 937.009 457.271 927.494 435.578 906.086C428.721 898.95 412.202 882.715 400.982 874.865C386.957 865.053 348.62 821.344 329.92 792.799C311.219 764.254 294.389 714.301 290.649 703.596C283.48 695.865 269.143 677.192 269.143 664.347C269.143 648.291 282.233 625.99 283.168 616.178C284.103 606.366 288.779 567.117 292.519 553.736C296.259 540.356 304.674 511.811 309.349 497.539C314.024 483.266 327.115 464.534 336.465 452.938C345.815 441.341 360.776 421.717 363.581 415.473C366.386 409.228 389.762 384.252 399.112 381.576C408.462 378.9 443.993 352.139 460.824 345.003C477.654 337.867 535.626 311.106 579.573 309.322C582.689 305.754 590.419 298.617 596.403 298.617C603.883 298.617 630.999 307.538 645.96 308.43C660.92 309.322 700.191 316.458 718.892 321.81C733.853 326.092 769.384 340.84 785.279 347.679C803.045 358.086 841.007 381.933 850.731 394.064C862.887 409.228 895.613 446.693 901.223 454.722C906.833 462.75 936.754 518.055 939.559 533.22C948.598 540.059 966.488 559.267 965.74 581.389C964.992 603.511 959.195 622.125 956.389 628.666C956.078 640.56 954.332 668.451 949.844 684.864C944.234 705.38 925.534 761.578 921.794 771.39C918.053 781.202 922.729 778.526 918.988 789.231C915.248 799.935 899.353 829.372 876.912 840.968C873.484 844.536 863.635 853.456 851.666 860.593C836.706 869.513 826.421 877.541 818.94 883.785C811.476 890.016 731.386 932.666 697.6 946.142Z" fill="#CFE2D4"/>
<path d="M288.779 311.106C302.991 295.406 310.284 288.686 312.154 287.288C309.612 284.336 306.822 281.09 304.254 278.101C290.744 283.453 278.493 303.97 270.078 311.106C261.663 318.242 259.793 314.674 249.507 325.378C239.222 336.082 231.742 341.435 224.262 358.383C216.781 375.331 204.626 392.28 195.276 407.444C185.925 422.609 165.355 470.778 160.679 487.727C156.004 504.675 143.849 546.6 142.914 559.98C141.979 573.361 136.369 613.502 133.564 627.774C130.759 642.047 120.473 650.967 125.148 669.699C129.824 688.432 135.434 693.784 144.784 708.056C154.134 722.329 154.134 748.197 161.615 767.822C169.095 787.447 174.705 800.827 197.146 842.752C215.098 876.292 253.871 918.574 271.013 935.523C245.767 910.546 227.067 881.109 197.146 832.94C167.225 784.771 153.199 712.517 152.264 705.38C151.329 698.244 134.499 682.188 131.694 667.023C128.888 651.859 133.564 650.075 141.044 631.342C148.524 612.61 152.264 552.844 163.485 510.919C174.705 468.994 193.406 435.989 209.301 407.444C225.197 378.9 239.222 359.275 249.507 341.435C259.793 323.594 271.013 330.73 288.779 311.106Z" fill="#CFE2D4"/>
<path d="M27.9049 723.221C21.983 692.892 12.1964 622.065 20.4247 581.389C28.6529 540.713 41.9306 488.321 47.5409 467.21C54.0861 449.072 70.7296 407.98 84.9421 388.712C90.5523 381.576 102.708 364.806 106.448 354.815C110.188 344.824 134.187 316.755 145.719 303.97C167.225 280.182 214.537 230.288 231.742 221.011C234.858 226.066 243.71 238.138 254.182 245.988C258.858 248.367 269.891 253.481 276.623 254.908C283.355 256.336 293.765 266.207 298.129 270.965C299.746 272.85 301.907 275.369 304.254 278.101C306.822 281.09 309.612 284.336 312.154 287.288C315.349 290.997 318.152 294.245 319.634 295.941C324.073 301.023 352.108 324.595 360.536 339.182C354.775 328.534 340.313 306.696 319.634 288.805C319.182 287.672 318.555 286.251 317.764 284.624C316.146 281.293 313.844 277.1 310.953 272.749C307.474 267.514 303.144 262.05 298.129 257.584C284.103 245.096 277.558 245.988 268.208 238.852C260.728 233.143 249.507 218.038 244.832 211.199C266.026 195.143 319.634 158.391 364.516 139.837C409.397 121.283 447.422 109.508 460.824 105.94C462.382 105.643 466.434 103.978 470.174 99.6961C473.914 95.4144 565.235 88.9918 610.429 86.3158C640.973 83.045 729.177 86.1374 837.641 124.673C844.498 128.241 863.635 137.696 885.327 146.973C912.443 158.57 900.288 149.65 924.598 165.706C948.909 181.762 1042.41 245.096 1060.18 275.425C1061.11 276.912 1061.67 280.242 1056.44 281.669C1049.89 283.453 1021.84 292.373 1006.88 295.941C994.913 298.796 981.324 309.619 976.025 314.674L972.285 317.885L962.519 326.27L929.274 354.815C937.931 348.942 953.215 338.9 966.812 330.73C970.71 328.388 974.47 326.2 977.895 324.308C981.879 322.108 985.41 320.309 988.181 319.134C1005.01 311.998 999.401 310.214 1015.3 309.322C1031.19 308.43 1052.7 306.646 1065.79 303.078C1076.26 300.223 1078.88 297.131 1078.88 295.941C1093.53 314.079 1127.31 358.562 1145.27 391.388C1167.71 432.421 1184.54 461.858 1186.41 476.13C1188.28 490.403 1213.52 576.037 1212.59 613.502C1211.65 650.967 1210.72 759.794 1182.67 822.236C1154.62 884.677 1129.37 931.955 1103.19 963.175C1077.01 994.396 961.065 1106.79 879.717 1129.98C853.848 1139.2 794.629 1159.06 764.708 1164.77C734.788 1170.48 702.373 1174.88 689.906 1176.37C687.724 1171.91 683.922 1155.5 686.166 1125.52C685.543 1117.5 683.735 1100.37 681.491 1096.09C678.686 1090.73 677.751 1070.22 677.751 1062.19C677.751 1058.65 676.294 1056.05 674.025 1047.16C673.39 1044.67 672.693 1042.1 671.945 1039.5C669.305 1030.3 666.048 1015.66 662.79 1008.67C661.59 1007.07 659.467 1003.17 658.553 998.208C659.591 1007.82 662.049 1023.57 666.358 1034.98C666.415 1035.13 666.472 1035.28 666.53 1035.43C666.8 1037.17 667.12 1039.43 667.448 1042.05C668.633 1051.5 669.921 1065.51 669.335 1075.57C668.4 1091.63 670.271 1100.55 671.206 1108.58C672.141 1116.6 671.206 1143.36 668.4 1157.64C667.465 1161.2 666.156 1170.3 668.4 1178.15C640.038 1179.34 578.077 1181.01 557.132 1178.15C530.951 1174.59 519.731 1171.91 504.77 1170.12C489.81 1168.34 475.784 1162.1 454.279 1157.64C458.019 1150.2 466.247 1134.44 469.239 1130.88C472.979 1126.42 482.33 1116.6 485.135 1112.14C487.94 1107.68 496.355 1086.27 498.225 1076.46C495.108 1084.49 487.753 1101.8 483.265 1106.79C477.654 1113.04 471.109 1118.39 467.369 1124.63C464.377 1129.63 449.915 1147.53 443.058 1155.85C409.397 1150.2 336.652 1136.05 314.959 1124.63C287.843 1110.36 245.767 1080.92 222.391 1061.3C199.016 1041.67 133.564 984.584 125.148 971.204C118.416 960.499 87.4355 917.98 72.7867 898.058C87.4355 926.602 120.099 987.082 133.564 1000.64C139.797 1006.29 152.638 1019.02 154.134 1024.72C156.004 1031.86 156.939 1049.7 164.42 1055.05C171.9 1060.41 177.51 1061.3 191.535 1063.08C196.211 1064.27 208.366 1073.07 219.586 1098.76C233.612 1130.88 251.377 1146.04 265.403 1152.28C279.428 1158.53 352.36 1174.59 364.516 1183.51C375.425 1187.67 403.6 1199.03 429.033 1211.16C431.215 1212.35 437.074 1214.73 443.058 1214.73C446.487 1215.62 455.401 1219.01 463.629 1225.43C469.551 1226.32 487.005 1225.97 509.445 1217.4C513.186 1215.92 527.959 1218.12 557.132 1238.81C560.249 1241.19 578.638 1245.23 627.259 1242.38C644.713 1246.24 682.8 1254.51 695.516 1256.65C697.386 1257.84 705.615 1256.65 723.567 1242.38C727.307 1240 738.902 1235.24 755.358 1235.24C757.228 1235.54 763.399 1233.46 773.124 1222.75C782.474 1222.46 806.224 1223.29 826.42 1229C832.966 1229.59 849.422 1225.97 862.887 1206.7C879.717 1182.61 871.302 1184.4 887.197 1176.37C903.093 1168.34 955.454 1153.18 966.675 1139.8C977.895 1126.42 974.155 1119.28 986.31 1113.93C998.466 1108.58 1034.93 1105.01 1046.15 1090.73C1057.37 1076.46 1052.7 1055.95 1064.85 1045.24C1077.01 1034.54 1112.54 1014.91 1112.54 1008.67C1112.54 1002.42 1105.99 998.856 1112.54 989.044C1119.08 979.232 1120.02 968.528 1129.37 965.852C1138.72 963.175 1144.33 967.635 1154.62 961.391C1164.9 955.147 1173.32 943.551 1172.38 937.307C1171.45 931.062 1155.55 911.438 1164.9 907.87C1174.25 904.302 1191.08 899.842 1190.15 894.49C1189.21 889.137 1185.47 855.241 1192.02 847.212C1198.56 839.184 1198.56 825.804 1207.91 812.423C1217.26 799.043 1214.46 765.146 1221.94 757.118C1229.42 749.09 1236.9 747.306 1235.96 736.601C1235.03 725.897 1235.96 700.028 1231.29 663.455C1232.85 656.319 1237.09 641.155 1241.57 637.587C1247.18 633.127 1239.7 628.666 1241.57 623.314C1243.44 617.962 1256.53 602.798 1257.47 585.849C1258.4 568.901 1237.83 551.06 1235.96 535.004C1234.09 518.947 1226.61 518.055 1232.22 502.891C1237.83 487.727 1249.99 457.398 1245.31 444.909C1240.64 432.421 1213.52 419.933 1210.72 401.2C1207.91 382.468 1214.46 380.684 1172.38 361.059C1169.89 351.247 1165.28 330.374 1166.77 325.378C1168.64 319.134 1160.23 312.89 1155.55 303.078C1150.88 293.265 1163.97 236.176 1149.01 228.148C1134.05 220.119 1046.15 193.359 1026.52 170.166C1006.88 146.973 990.05 103.264 976.96 99.6962C963.87 96.1281 947.039 104.156 935.819 97.0201C924.599 89.8839 913.378 56.879 894.678 53.3109C875.977 49.7428 875.042 62.2312 858.211 57.771C841.381 53.3109 800.24 30.1183 769.384 31.9024C738.528 33.6864 753.488 40.8226 727.307 31.9024C701.126 22.9821 670.27 -4.67061 655.31 0.681537C640.349 6.03368 620.714 39.0385 590.793 29.2262C560.872 19.4139 532.821 14.0617 490.745 22.982C448.668 31.9024 440.253 26.5501 383.216 72.9354C383.84 74.7194 374.24 76.5035 330.855 69.3673C321.193 71.1513 291.584 85.2453 250.442 127.349C239.222 130.322 210.423 137.696 184.99 143.405C178.757 145.487 162.924 162.851 149.459 215.659C136.992 225.769 108.692 250.805 95.2274 270.073V288.805C87.4355 304.564 70.3556 338.402 64.3714 347.679C56.8912 359.275 34.4505 378.9 29.7753 392.28C25.1002 405.66 29.7746 411.905 20.4247 427.961C11.0748 444.017 -3.88572 452.046 1.72446 471.67C7.33463 491.295 13.8799 481.482 11.0748 502.891C8.26969 524.299 1.72446 543.032 1.72446 570.685C1.72446 598.338 12.009 701.812 27.9049 723.221Z" fill="#CFE2D4"/>
<path d="M926.469 294.157C945.169 306.289 958.294 320.621 962.519 326.27L972.285 317.885L945.169 291.481C943.611 290.887 938.25 286.843 929.274 275.425C918.053 261.152 837.641 219.227 825.485 212.983C813.33 206.739 743.203 177.302 703.932 175.518C664.66 173.734 661.855 169.274 644.09 163.922C626.324 158.57 596.403 163.922 578.638 165.706C564.425 167.133 550.898 171.058 545.912 172.842C481.395 182.654 426.228 204.955 384.152 225.471C350.49 241.885 321.327 263.829 310.953 272.749C313.844 277.1 316.146 281.293 317.764 284.624C333.66 273.306 381.346 247.772 392.567 237.96C403.787 228.148 467.369 203.171 514.121 194.251L574.898 182.654C589.858 178.194 571.157 182.654 598.273 180.87C625.389 179.086 632.869 178.194 647.83 182.654C662.79 187.114 735.723 196.927 772.189 208.523C808.655 220.119 837.641 237.068 869.432 254.016C901.223 270.965 903.093 278.993 926.469 294.157Z" fill="#CFE2D4"/>
<path d="M967.61 939.983C951.901 958.537 926.157 974.474 915.248 980.124C953.398 972.987 987.246 926.008 999.401 903.41C1008.75 890.029 1030.82 857.917 1044.28 836.508C1061.11 809.747 1077.94 755.334 1082.62 741.061C1087.29 726.789 1091.03 700.92 1092.9 683.08C1094.77 665.239 1094.77 650.075 1099.45 620.638C1104.12 591.201 1100.38 574.253 1099.45 568.009C1098.7 563.013 1089.16 542.735 1084.49 533.22C1078.88 503.783 1072.33 491.295 1061.11 455.614C1049.89 419.933 1026.52 387.82 1013.43 369.087C1002.95 354.101 985.375 332.991 977.895 324.308C974.47 326.2 970.71 328.388 966.812 330.73C979.735 346.417 1002.08 377.428 1012.7 392.157L1013.43 393.172C1023.71 407.444 1038.67 437.773 1048.96 457.398C1059.24 477.022 1068.59 511.811 1072.33 524.299C1076.07 536.788 1070.46 532.328 1077.94 545.708C1085.42 559.088 1092.9 587.633 1092.9 602.798C1092.9 617.962 1087.29 650.967 1086.36 667.023C1085.42 683.08 1084.49 707.164 1075.14 744.629C1065.79 782.094 1035.87 838.292 1023.71 857.916C1011.56 877.541 1012.49 869.513 1006.88 882.893C1001.27 896.273 987.246 916.79 967.61 939.983Z" fill="#CFE2D4"/>
<path d="M666.53 1035.43C666.472 1035.28 666.415 1035.13 666.358 1034.98C665.206 1035.11 664.018 1035.26 662.79 1035.43C621.649 1040.95 570.222 1034.24 519.731 1029.83C469.239 1025.43 383.217 989.044 343.945 980.124C312.917 973.076 282.984 948.047 271.439 935.971C283.129 948.276 306.751 972.935 311.053 976.628C316.497 981.301 355.418 991.084 375.135 995.757C394.853 1000.43 419.5 1016.78 446.612 1023.79C473.724 1030.8 518.088 1035.48 555.059 1044.82C584.635 1052.3 642.308 1044.38 667.448 1042.05C667.12 1039.43 666.8 1037.17 666.53 1035.43Z" fill="#CFE2D4"/>
<path d="M915.248 980.124C889.666 989.718 835.375 1017.18 780.082 1029.83C716.548 1044.37 703.814 1036.57 671.945 1039.5C672.693 1042.1 673.39 1044.67 674.025 1047.16C694.27 1049.03 767.892 1036.87 796.823 1030.56C824.756 1030.56 883.846 995.232 915.248 980.124Z" fill="#CFE2D4"/>
</svg>
