<svg width="26" height="20" viewBox="0 0 26 20" fill="none" xmlns="http://www.w3.org/2000/svg">
<path id="Vector 33" d="M21.0769 7.75C24.0818 7.75 24.833 8.875 24.833 9.4375V15.625H22.1501M21.0769 7.75C19.4882 7.75 16.5294 7.75 13.5647 7.75M21.0769 7.75C21.0769 6.625 21.0769 4.0375 21.0769 2.6875C21.0769 1.3375 19.646 1 18.9306 1H13.5647M5.58911 7.75C4.33707 7.75 1.83301 8.0875 1.83301 9.4375C1.83301 10.7875 1.83301 14.125 1.83301 15.625H4.51593M5.58911 7.75C7.27497 7.75 10.9222 7.75 13.5647 7.75M5.58911 7.75V2.6875C5.58911 1.5 6.58911 0.999998 8.19886 1C9.48667 1 12.3127 1 13.5647 1M13.5647 7.75V1M4.51593 15.625L5.58911 19H6.66228L7.73545 15.625M4.51593 15.625H7.73545M7.73545 15.625H18.9306M22.1501 15.625L21.0769 19H20.0037L18.9306 15.625M22.1501 15.625H18.9306" stroke="#8F98A9" stroke-width="2"/>
</svg>
