<svg width="24" height="24" viewBox="0 0 24 24" fill="none" xmlns="http://www.w3.org/2000/svg">
<g id="icons">
<path id="Vector" d="M12.6759 5.09699C14.5759 5.53602 17.9304 7.98668 18.3758 11.1161M12.6759 2.00708C18.3758 1.76645 22.1678 7.70526 21.9945 12.6482M8.61093 4.0233C8.46002 3.62503 8.19961 3.28362 7.86326 3.04307C7.52692 2.80252 7.13006 2.67386 6.72383 2.67368H3.92675C3.41574 2.67368 2.92567 2.88804 2.56433 3.26961C2.203 3.65118 2 4.16869 2 4.70831C2 14.2577 9.33079 22 18.3758 22C18.8867 21.9997 19.3765 21.7852 19.7376 21.4037C20.0987 21.0222 20.3016 20.5048 20.3016 19.9654V17.0117C20.3016 16.5825 20.1798 16.1632 19.952 15.8078C19.7242 15.4524 19.4008 15.1773 19.0235 15.0178L16.3433 13.8862C16.003 13.7423 15.6322 13.6983 15.2701 13.7588C14.908 13.8193 14.5681 13.982 14.2864 14.2297L13.5951 14.8396C13.2051 15.1829 12.7076 15.3598 12.2004 15.3355C11.6932 15.3113 11.2129 15.0877 10.8539 14.7086L8.90579 12.6482C8.54702 12.2694 8.33528 11.7627 8.31214 11.2276C8.289 10.6924 8.45614 10.1674 8.78073 9.7557L9.35722 9.0256C9.59234 8.72824 9.74691 8.36925 9.80455 7.98668C9.86219 7.6041 9.82075 7.21219 9.68462 6.85246L8.61093 4.0233Z" stroke="#FAFAFA" stroke-width="1.4" stroke-linecap="round" stroke-linejoin="round"/>
</g>
</svg>
