<svg width="25" height="24" viewBox="0 0 25 24" fill="none" xmlns="http://www.w3.org/2000/svg">
<g id="icons">
<g id="Vector_WA">
<mask id="path-1-inside-1_4144_10108" fill="white">
<path d="M12.5 3C17.4707 3 21.5 7.0293 21.5 12C21.5 16.9707 17.4707 21 12.5 21C10.9095 21.0026 9.347 20.5816 7.97301 19.7805L3.50361 21L4.72041 16.5288C3.9186 15.1544 3.49736 13.5912 3.50001 12C3.50001 7.0293 7.52931 3 12.5 3ZM9.43281 7.77L9.25281 7.7772C9.13628 7.78429 9.02239 7.81491 8.91801 7.8672C8.82038 7.92248 8.73126 7.9916 8.65341 8.0724C8.54541 8.1741 8.48421 8.2623 8.41851 8.3478C8.08562 8.78061 7.90638 9.31198 7.90911 9.858C7.91091 10.299 8.02611 10.7283 8.20611 11.1297C8.57421 11.9415 9.17991 12.801 9.97911 13.5975C10.1717 13.7892 10.3607 13.9818 10.5641 14.1609C11.5572 15.0352 12.7405 15.6657 14.0201 16.0023L14.5313 16.0806C14.6978 16.0896 14.8643 16.077 15.0317 16.0689C15.2938 16.0554 15.5498 15.9844 15.7814 15.861C15.8993 15.8003 16.0143 15.7342 16.1261 15.663C16.1261 15.663 16.1648 15.6378 16.2386 15.582C16.3601 15.492 16.4348 15.4281 16.5356 15.3228C16.6103 15.2454 16.6751 15.1545 16.7246 15.051C16.7948 14.9043 16.865 14.6244 16.8938 14.3913C16.9154 14.2131 16.9091 14.1159 16.9064 14.0556C16.9028 13.9593 16.8227 13.8594 16.7354 13.8171L16.2116 13.5822C16.2116 13.5822 15.4286 13.2411 14.9498 13.0233C14.8997 13.0014 14.846 12.9889 14.7914 12.9864C14.7298 12.9801 14.6676 12.987 14.6089 13.0067C14.5503 13.0264 14.4965 13.0585 14.4512 13.1007C14.4467 13.0989 14.3864 13.1502 13.7357 13.9386C13.6984 13.9888 13.6469 14.0267 13.5879 14.0475C13.5289 14.0684 13.4651 14.0712 13.4045 14.0556C13.3459 14.0399 13.2884 14.02 13.2326 13.9962C13.121 13.9494 13.0823 13.9314 13.0058 13.899C12.4893 13.6736 12.011 13.369 11.5883 12.9963C11.4749 12.8973 11.3696 12.7893 11.2616 12.6849C10.9075 12.3458 10.599 11.9622 10.3436 11.5437L10.2905 11.4582C10.2524 11.4007 10.2215 11.3388 10.1987 11.2737C10.1645 11.1414 10.2536 11.0352 10.2536 11.0352C10.2536 11.0352 10.4723 10.7958 10.574 10.6662C10.673 10.5402 10.7567 10.4178 10.8107 10.3305C10.9169 10.1595 10.9502 9.984 10.8944 9.8481C10.6424 9.2325 10.3814 8.6196 10.1132 8.0112C10.0601 7.8906 9.90261 7.8042 9.75951 7.7871C9.71091 7.7817 9.66231 7.7763 9.61371 7.7727C9.49284 7.76669 9.37173 7.76789 9.25101 7.7763L9.43281 7.77Z"/>
</mask>
<path d="M12.5 21V19.6L12.4977 19.6L12.5 21ZM7.97301 19.7805L8.6782 18.5711L8.17096 18.2753L7.60448 18.4299L7.97301 19.7805ZM3.50361 21L2.15274 20.6324L1.50971 22.9952L3.87214 22.3506L3.50361 21ZM4.72041 16.5288L6.07128 16.8964L6.22538 16.3302L5.92967 15.8233L4.72041 16.5288ZM3.50001 12L4.90001 12.0023V12H3.50001ZM9.43281 7.77L9.48876 9.16888L9.38432 6.37084L9.43281 7.77ZM9.25281 7.7772L9.19685 6.37832L9.18227 6.3789L9.16771 6.37979L9.25281 7.7772ZM8.91801 7.8672L8.29097 6.61547L8.25913 6.63142L8.22815 6.64896L8.91801 7.8672ZM8.65341 8.0724L9.61318 9.09163L9.63798 9.06828L9.6616 9.04376L8.65341 8.0724ZM8.41851 8.3478L9.52824 9.20132L9.52862 9.20083L8.41851 8.3478ZM7.90911 9.858L9.3091 9.85228L9.30909 9.85101L7.90911 9.858ZM8.20611 11.1297L6.92866 11.7025L6.93106 11.7078L8.20611 11.1297ZM9.97911 13.5975L8.99083 14.5891L8.99148 14.5898L9.97911 13.5975ZM10.5641 14.1609L9.63891 15.2116L9.63897 15.2117L10.5641 14.1609ZM14.0201 16.0023L13.664 17.3562L13.7353 17.375L13.8081 17.3862L14.0201 16.0023ZM14.5313 16.0806L14.3193 17.4645L14.3872 17.4748L14.4557 17.4786L14.5313 16.0806ZM15.0317 16.0689L15.0994 17.4673L15.1039 17.467L15.0317 16.0689ZM15.7814 15.861L15.1403 14.6164L15.1317 14.6208L15.1232 14.6254L15.7814 15.861ZM16.1261 15.663L16.8782 16.8439L16.89 16.8362L16.1261 15.663ZM16.2386 15.582L15.4052 14.457L15.3943 14.4653L16.2386 15.582ZM16.5356 15.3228L15.5282 14.3506L15.5243 14.3547L16.5356 15.3228ZM16.7246 15.051L15.4617 14.4467L15.4616 14.447L16.7246 15.051ZM16.8938 14.3913L18.2832 14.563L18.2836 14.5598L16.8938 14.3913ZM16.9064 14.0556L15.5073 14.1079L15.5078 14.1182L16.9064 14.0556ZM16.7354 13.8171L17.3459 12.5572L17.3272 12.5482L17.3083 12.5397L16.7354 13.8171ZM16.2116 13.5822L16.7845 12.3048L16.7776 12.3017L16.7707 12.2987L16.2116 13.5822ZM14.9498 13.0233L15.5295 11.7489L15.5198 11.7445L15.51 11.7403L14.9498 13.0233ZM14.7914 12.9864L14.6484 14.3791L14.6876 14.3831L14.727 14.3849L14.7914 12.9864ZM14.4512 13.1007L13.9313 14.4006L14.7563 14.7306L15.4061 14.1245L14.4512 13.1007ZM13.7357 13.9386L12.656 13.0474L12.6336 13.0746L12.6126 13.1028L13.7357 13.9386ZM13.4045 14.0556L13.0419 15.4078L13.0488 15.4097L13.0556 15.4114L13.4045 14.0556ZM13.2326 13.9962L13.7822 12.7086L13.774 12.7051L13.2326 13.9962ZM13.0058 13.899L12.4459 15.1821L12.4528 15.1852L12.4598 15.1881L13.0058 13.899ZM11.5883 12.9963L12.5142 11.9462L12.509 11.9416L11.5883 12.9963ZM11.2616 12.6849L12.2346 11.6783L12.2299 11.6738L11.2616 12.6849ZM10.3436 11.5437L11.5387 10.8145L11.5329 10.8051L10.3436 11.5437ZM10.2905 11.4582L11.4798 10.7196L11.4686 10.7016L11.4569 10.6839L10.2905 11.4582ZM10.1987 11.2737L8.84326 11.6241L8.85805 11.6813L8.87761 11.7371L10.1987 11.2737ZM10.2536 11.0352L9.21998 10.0909L9.20006 10.1127L9.18109 10.1354L10.2536 11.0352ZM10.574 10.6662L9.47316 9.80124L9.47263 9.80192L10.574 10.6662ZM10.8107 10.3305L9.6214 9.59187L9.62007 9.59402L10.8107 10.3305ZM10.8944 9.8481L9.59876 10.3785L9.59933 10.3799L10.8944 9.8481ZM10.1132 8.0112L8.83191 8.57535L8.83216 8.57592L10.1132 8.0112ZM9.75951 7.7871L9.92563 6.39694L9.91411 6.39566L9.75951 7.7871ZM9.61371 7.7727L9.71713 6.37652L9.70016 6.37527L9.68318 6.37442L9.61371 7.7727ZM9.25101 7.7763L9.1538 6.37968L9.29949 9.17546L9.25101 7.7763ZM12.5 4.4C16.6975 4.4 20.1 7.8025 20.1 12H22.9C22.9 6.2561 18.2439 1.6 12.5 1.6V4.4ZM20.1 12C20.1 16.1975 16.6975 19.6 12.5 19.6V22.4C18.2439 22.4 22.9 17.7439 22.9 12H20.1ZM12.4977 19.6C11.1558 19.6022 9.83747 19.247 8.6782 18.5711L7.26781 20.9899C8.85652 21.9163 10.6632 22.403 12.5023 22.4L12.4977 19.6ZM7.60448 18.4299L3.13509 19.6494L3.87214 22.3506L8.34154 21.1311L7.60448 18.4299ZM4.85448 21.3676L6.07128 16.8964L3.36954 16.1612L2.15274 20.6324L4.85448 21.3676ZM5.92967 15.8233C5.25317 14.6637 4.89777 13.3448 4.90001 12.0023L2.10001 11.9977C2.09694 13.8375 2.58402 15.645 3.51115 17.2343L5.92967 15.8233ZM4.90001 12C4.90001 7.8025 8.30251 4.4 12.5 4.4V1.6C6.75611 1.6 2.10001 6.2561 2.10001 12H4.90001ZM9.37685 6.37112L9.19685 6.37832L9.30876 9.17608L9.48876 9.16888L9.37685 6.37112ZM9.16771 6.37979C8.86255 6.39837 8.56432 6.47854 8.29097 6.61547L9.54504 9.11893C9.48046 9.15128 9.41 9.17022 9.33791 9.17461L9.16771 6.37979ZM8.22815 6.64896C8.01306 6.77077 7.81672 6.92303 7.64522 7.10103L9.6616 9.04376C9.6458 9.06017 9.6277 9.0742 9.60787 9.08543L8.22815 6.64896ZM7.69363 7.05317C7.48331 7.25122 7.34141 7.45181 7.3084 7.49477L9.52862 9.20083C9.62701 9.07278 9.60751 9.09697 9.61318 9.09163L7.69363 7.05317ZM7.30878 7.49427C6.78621 8.1737 6.50485 9.00784 6.50913 9.86498L9.30909 9.85101C9.30792 9.61611 9.38503 9.38752 9.52824 9.20132L7.30878 7.49427ZM6.50912 9.86371C6.5119 10.545 6.68927 11.1687 6.92867 11.7025L9.48355 10.5569C9.36295 10.2879 9.30992 10.053 9.3091 9.85228L6.50912 9.86371ZM6.93106 11.7078C7.37974 12.6973 8.09177 13.6931 8.99083 14.5891L10.9674 12.6059C10.268 11.9089 9.76868 11.1856 9.48115 10.5515L6.93106 11.7078ZM8.99148 14.5898C9.16666 14.7641 9.39474 14.9966 9.63891 15.2116L11.4893 13.1102C11.3267 12.967 11.1768 12.8143 10.9667 12.6052L8.99148 14.5898ZM9.63897 15.2117C10.7955 16.2299 12.1737 16.9643 13.664 17.3562L14.3762 14.6483C13.3073 14.3672 12.3188 13.8405 11.4892 13.1101L9.63897 15.2117ZM13.8081 17.3862L14.3193 17.4645L14.7433 14.6967L14.2321 14.6184L13.8081 17.3862ZM14.4557 17.4786C14.7151 17.4926 14.9856 17.4728 15.0994 17.4673L14.964 14.6705C14.743 14.6812 14.6805 14.6866 14.6069 14.6826L14.4557 17.4786ZM15.1039 17.467C15.5709 17.4429 16.0269 17.3165 16.4396 17.0966L15.1232 14.6254C15.0726 14.6523 15.0168 14.6678 14.9595 14.6708L15.1039 17.467ZM16.4225 17.1056C16.5783 17.0253 16.7304 16.938 16.8782 16.8438L15.374 14.4822C15.2982 14.5305 15.2202 14.5752 15.1403 14.6164L16.4225 17.1056ZM16.1261 15.663C16.89 16.8362 16.8901 16.8361 16.8902 16.8361C16.8902 16.8361 16.8903 16.836 16.8904 16.836C16.8905 16.8359 16.8906 16.8358 16.8907 16.8358C16.8909 16.8356 16.8911 16.8355 16.8914 16.8353C16.8918 16.835 16.8923 16.8347 16.8927 16.8344C16.8937 16.8338 16.8946 16.8332 16.8956 16.8325C16.8977 16.8312 16.8998 16.8298 16.9021 16.8282C16.9067 16.8252 16.912 16.8217 16.9177 16.8178C16.9293 16.8099 16.9432 16.8004 16.9594 16.7891C16.9917 16.7664 17.033 16.7365 17.083 16.6987L15.3943 14.4653C15.3704 14.4833 15.3555 14.4939 15.35 14.4978C15.3473 14.4997 15.3469 14.4999 15.3489 14.4986C15.3499 14.4979 15.3515 14.4968 15.3537 14.4954C15.3548 14.4946 15.3561 14.4938 15.3575 14.4929C15.3582 14.4924 15.3589 14.4919 15.3597 14.4914C15.3601 14.4911 15.3605 14.4909 15.3609 14.4906C15.3611 14.4905 15.3613 14.4903 15.3615 14.4902C15.3616 14.4901 15.3617 14.4901 15.3618 14.49C15.3619 14.49 15.362 14.4899 15.362 14.4899C15.3621 14.4898 15.3622 14.4898 16.1261 15.663ZM17.0719 16.707C17.2464 16.5777 17.3828 16.4623 17.5469 16.2909L15.5243 14.3547C15.497 14.3832 15.4842 14.3947 15.4764 14.4015C15.467 14.4097 15.4492 14.4245 15.4053 14.457L17.0719 16.707ZM17.543 16.295C17.7172 16.1145 17.8702 15.9004 17.9876 15.655L15.4616 14.447C15.48 14.4086 15.5034 14.3763 15.5282 14.3506L17.543 16.295ZM17.9875 15.6553C18.1485 15.3187 18.2449 14.8731 18.2832 14.563L15.5044 14.2196C15.4978 14.2725 15.4847 14.3425 15.4681 14.4079C15.4601 14.4392 15.4532 14.4618 15.449 14.4745C15.4435 14.4908 15.4466 14.4783 15.4617 14.4467L17.9875 15.6553ZM18.2836 14.5598C18.319 14.2676 18.3089 14.0805 18.305 13.993L15.5078 14.1182C15.5096 14.1585 15.5094 14.1542 15.5094 14.1589C15.5093 14.162 15.509 14.1814 15.504 14.2228L18.2836 14.5598ZM18.3054 14.0033C18.2903 13.5982 18.1256 13.2827 17.9766 13.0819C17.824 12.8762 17.6117 12.686 17.3459 12.5572L16.1249 15.077C15.9464 14.9905 15.8178 14.8714 15.728 14.7503C15.6417 14.6341 15.5189 14.4167 15.5074 14.1079L18.3054 14.0033ZM17.3083 12.5397L16.7845 12.3048L15.6387 14.8596L16.1625 15.0945L17.3083 12.5397ZM16.2116 13.5822C16.7707 12.2987 16.7707 12.2987 16.7707 12.2987C16.7707 12.2987 16.7707 12.2987 16.7707 12.2987C16.7707 12.2987 16.7707 12.2987 16.7706 12.2987C16.7706 12.2986 16.7704 12.2986 16.7703 12.2985C16.7699 12.2983 16.7694 12.2981 16.7687 12.2978C16.7673 12.2972 16.7651 12.2962 16.7622 12.295C16.7565 12.2925 16.748 12.2888 16.737 12.284C16.715 12.2744 16.6829 12.2604 16.6428 12.2428C16.5627 12.2078 16.4508 12.1588 16.3242 12.103C16.0694 11.9909 15.7606 11.8541 15.5295 11.7489L14.3701 14.2976C14.6178 14.4103 14.9399 14.5529 15.1963 14.6658C15.3253 14.7226 15.4391 14.7725 15.5207 14.8082C15.5616 14.826 15.5944 14.8403 15.617 14.8502C15.6284 14.8552 15.6371 14.859 15.6431 14.8616C15.6461 14.8629 15.6484 14.8639 15.65 14.8646C15.6508 14.865 15.6514 14.8652 15.6518 14.8654C15.652 14.8655 15.6522 14.8656 15.6523 14.8656C15.6523 14.8656 15.6524 14.8657 15.6524 14.8657C15.6524 14.8657 15.6524 14.8657 15.6524 14.8657C15.6525 14.8657 15.6525 14.8657 16.2116 13.5822ZM15.51 11.7403C15.3031 11.6499 15.0814 11.5983 14.8559 11.5879L14.727 14.3849C14.6106 14.3795 14.4963 14.3529 14.3896 14.3063L15.51 11.7403ZM14.9344 11.5937C14.6741 11.567 14.4111 11.5963 14.1631 11.6796L15.0548 14.3338C14.9241 14.3777 14.7855 14.3932 14.6484 14.3791L14.9344 11.5937ZM14.1631 11.6796C13.915 11.7629 13.6877 11.8984 13.4963 12.0769L15.4061 14.1245C15.3053 14.2185 15.1855 14.2899 15.0548 14.3338L14.1631 11.6796ZM14.9712 11.8008C14.5829 11.6455 14.2464 11.7077 14.1022 11.7448C13.9431 11.7856 13.8269 11.8456 13.7715 11.8763C13.6581 11.9391 13.579 12.004 13.5537 12.0249C13.4912 12.0766 13.4439 12.1249 13.4266 12.1426C13.3821 12.1883 13.3331 12.243 13.2809 12.3029C13.1708 12.4291 12.983 12.6512 12.656 13.0474L14.8154 14.8297C15.1391 14.4376 15.3069 14.2398 15.3907 14.1437C15.4354 14.0925 15.443 14.0854 15.4314 14.0973C15.4305 14.0982 15.3939 14.1366 15.338 14.1828C15.3161 14.2009 15.2394 14.2641 15.1277 14.3259C15.0731 14.3562 14.9576 14.4159 14.799 14.4566C14.6554 14.4936 14.3192 14.5557 13.9313 14.4006L14.9712 11.8008ZM12.6126 13.1028C12.7412 12.9299 12.9184 12.7993 13.1216 12.7275L14.0543 15.3676C14.3754 15.2541 14.6555 15.0476 14.8588 14.7744L12.6126 13.1028ZM13.1216 12.7275C13.3248 12.6557 13.5447 12.6461 13.7534 12.6998L13.0556 15.4114C13.3855 15.4963 13.7331 15.481 14.0543 15.3676L13.1216 12.7275ZM13.7671 12.7034C13.7723 12.7047 13.7773 12.7065 13.7822 12.7086L12.683 15.2838C12.7996 15.3336 12.9195 15.375 13.0419 15.4078L13.7671 12.7034ZM13.774 12.7051C13.6282 12.644 13.6987 12.6721 13.5518 12.6098L12.4598 15.1881C12.4659 15.1907 12.6138 15.2548 12.6912 15.2873L13.774 12.7051ZM13.5657 12.6158C13.1826 12.4486 12.8278 12.2227 12.5142 11.9462L10.6624 14.0464C11.1942 14.5153 11.796 14.8985 12.4459 15.1821L13.5657 12.6158ZM12.509 11.9416C12.4312 11.8737 12.3826 11.8213 12.2346 11.6783L10.2886 13.6915C10.3566 13.7573 10.5186 13.9209 10.6676 14.0509L12.509 11.9416ZM12.2299 11.6738C11.9633 11.4185 11.731 11.1296 11.5387 10.8145L9.1485 12.2729C9.46693 12.7948 9.85174 13.2731 10.2933 13.696L12.2299 11.6738ZM11.5329 10.8051L11.4798 10.7196L9.1012 12.1968L9.1543 12.2823L11.5329 10.8051ZM11.4569 10.6839C11.483 10.7233 11.5042 10.7657 11.5198 10.8103L8.87761 11.7371C8.9389 11.9118 9.0217 12.0782 9.12413 12.2325L11.4569 10.6839ZM11.5542 10.9233C11.6372 11.2444 11.5623 11.5077 11.5051 11.6445C11.4752 11.7161 11.4421 11.7737 11.4139 11.8171C11.3993 11.8395 11.3846 11.8603 11.3702 11.8795C11.363 11.8892 11.3557 11.8986 11.3484 11.9078C11.3447 11.9124 11.341 11.917 11.3373 11.9215C11.3355 11.9238 11.3336 11.926 11.3317 11.9283C11.3308 11.9294 11.3299 11.9305 11.3289 11.9317C11.3285 11.9322 11.328 11.9328 11.3275 11.9333C11.3273 11.9336 11.327 11.934 11.3268 11.9342C11.3265 11.9346 11.3261 11.935 10.2536 11.0352C9.18109 10.1354 9.18073 10.1358 9.18038 10.1362C9.18026 10.1363 9.17991 10.1368 9.17967 10.1371C9.17919 10.1376 9.17872 10.1382 9.17824 10.1388C9.17728 10.1399 9.17631 10.1411 9.17534 10.1423C9.17339 10.1446 9.1714 10.147 9.16938 10.1495C9.16534 10.1544 9.16116 10.1596 9.15685 10.165C9.14825 10.1759 9.13908 10.1877 9.12947 10.2005C9.11035 10.226 9.08898 10.2561 9.06656 10.2906C9.02268 10.3581 8.96946 10.4504 8.92153 10.5652C8.82837 10.7882 8.72606 11.1707 8.84326 11.6241L11.5542 10.9233ZM10.2536 11.0352C11.2872 11.9794 11.2873 11.9794 11.2873 11.9794C11.2873 11.9794 11.2873 11.9794 11.2873 11.9794C11.2873 11.9793 11.2874 11.9793 11.2874 11.9792C11.2875 11.9792 11.2876 11.9791 11.2877 11.979C11.2879 11.9787 11.2881 11.9785 11.2884 11.9781C11.2891 11.9775 11.2899 11.9766 11.2909 11.9754C11.2929 11.9732 11.2958 11.9701 11.2993 11.9662C11.3064 11.9584 11.3163 11.9474 11.3285 11.934C11.3527 11.9072 11.3862 11.8698 11.4235 11.8278C11.4904 11.7523 11.5958 11.6318 11.6754 11.5305L9.47263 9.80192C9.45048 9.83015 9.39571 9.89423 9.32784 9.97082C9.29773 10.0048 9.27022 10.0354 9.25024 10.0576C9.24031 10.0686 9.23238 10.0773 9.2271 10.0831C9.22447 10.086 9.2225 10.0882 9.22128 10.0895C9.22068 10.0902 9.22026 10.0906 9.22004 10.0909C9.21992 10.091 9.21986 10.0911 9.21985 10.0911C9.21985 10.0911 9.21986 10.0911 9.21988 10.0911C9.21989 10.091 9.2199 10.091 9.21992 10.091C9.21993 10.091 9.21994 10.091 9.21995 10.091C9.21996 10.091 9.21998 10.0909 10.2536 11.0352ZM11.6749 11.5311C11.8057 11.3646 11.9195 11.1993 12.0013 11.067L9.62007 9.59402C9.59394 9.63627 9.54029 9.71581 9.47316 9.80124L11.6749 11.5311ZM12 11.0691C12.2314 10.6965 12.4832 10.0317 12.1895 9.31634L9.59933 10.3799C9.50743 10.156 9.51257 9.95674 9.53493 9.831C9.55695 9.70722 9.59892 9.62809 9.6214 9.59188L12 11.0691ZM12.1901 9.31771C11.9331 8.69 11.6672 8.06564 11.3943 7.44647L8.83216 8.57592C9.09561 9.17355 9.35172 9.77499 9.59876 10.3785L12.1901 9.31771ZM11.3945 7.44704C11.2171 7.04422 10.9191 6.79873 10.6969 6.66377C10.4645 6.52261 10.1985 6.4296 9.92562 6.39699L9.59339 9.17721C9.46358 9.16169 9.34792 9.12044 9.24332 9.0569C9.14891 8.99956 8.95617 8.85758 8.83191 8.57535L11.3945 7.44704ZM9.91411 6.39566C9.86983 6.39074 9.79566 6.38234 9.71713 6.37652L9.51029 9.16887C9.52896 9.17025 9.55198 9.17265 9.6049 9.17853L9.91411 6.39566ZM9.68318 6.37442C9.50677 6.36566 9.33 6.36741 9.1538 6.37968L9.34822 9.17292C9.41346 9.16838 9.47892 9.16773 9.54424 9.17097L9.68318 6.37442ZM9.29949 9.17546L9.48129 9.16916L9.38432 6.37084L9.20252 6.37714L9.29949 9.17546Z" fill="#2C6849" class="transition-colors duration-300 group-hover:fill-white" mask="url(#path-1-inside-1_4144_10108)"/>
<path d="M12.5 21V19.6L12.4977 19.6L12.5 21ZM7.97301 19.7805L8.6782 18.5711L8.17096 18.2753L7.60448 18.4299L7.97301 19.7805ZM3.50361 21L2.15274 20.6324L1.50971 22.9952L3.87214 22.3506L3.50361 21ZM4.72041 16.5288L6.07128 16.8964L6.22538 16.3302L5.92967 15.8233L4.72041 16.5288ZM3.50001 12L4.90001 12.0023V12H3.50001ZM9.43281 7.77L9.48876 9.16888L9.38432 6.37084L9.43281 7.77ZM9.25281 7.7772L9.19685 6.37832L9.18227 6.3789L9.16771 6.37979L9.25281 7.7772ZM8.91801 7.8672L8.29097 6.61547L8.25913 6.63142L8.22815 6.64896L8.91801 7.8672ZM8.65341 8.0724L9.61318 9.09163L9.63798 9.06828L9.6616 9.04376L8.65341 8.0724ZM8.41851 8.3478L9.52824 9.20132L9.52862 9.20083L8.41851 8.3478ZM7.90911 9.858L9.3091 9.85228L9.30909 9.85101L7.90911 9.858ZM8.20611 11.1297L6.92866 11.7025L6.93106 11.7078L8.20611 11.1297ZM9.97911 13.5975L8.99083 14.5891L8.99148 14.5898L9.97911 13.5975ZM10.5641 14.1609L9.63891 15.2116L9.63897 15.2117L10.5641 14.1609ZM14.0201 16.0023L13.664 17.3562L13.7353 17.375L13.8081 17.3862L14.0201 16.0023ZM14.5313 16.0806L14.3193 17.4645L14.3872 17.4748L14.4557 17.4786L14.5313 16.0806ZM15.0317 16.0689L15.0994 17.4673L15.1039 17.467L15.0317 16.0689ZM15.7814 15.861L15.1403 14.6164L15.1317 14.6208L15.1232 14.6254L15.7814 15.861ZM16.1261 15.663L16.8782 16.8439L16.89 16.8362L16.1261 15.663ZM16.2386 15.582L15.4052 14.457L15.3943 14.4653L16.2386 15.582ZM16.5356 15.3228L15.5282 14.3506L15.5243 14.3547L16.5356 15.3228ZM16.7246 15.051L15.4617 14.4467L15.4616 14.447L16.7246 15.051ZM16.8938 14.3913L18.2832 14.563L18.2836 14.5598L16.8938 14.3913ZM16.9064 14.0556L15.5073 14.1079L15.5078 14.1182L16.9064 14.0556ZM16.7354 13.8171L17.3459 12.5572L17.3272 12.5482L17.3083 12.5397L16.7354 13.8171ZM16.2116 13.5822L16.7845 12.3048L16.7776 12.3017L16.7707 12.2987L16.2116 13.5822ZM14.9498 13.0233L15.5295 11.7489L15.5198 11.7445L15.51 11.7403L14.9498 13.0233ZM14.7914 12.9864L14.6484 14.3791L14.6876 14.3831L14.727 14.3849L14.7914 12.9864ZM14.4512 13.1007L13.9313 14.4006L14.7563 14.7306L15.4061 14.1245L14.4512 13.1007ZM13.7357 13.9386L12.656 13.0474L12.6336 13.0746L12.6126 13.1028L13.7357 13.9386ZM13.4045 14.0556L13.0419 15.4078L13.0488 15.4097L13.0556 15.4114L13.4045 14.0556ZM13.2326 13.9962L13.7822 12.7086L13.774 12.7051L13.2326 13.9962ZM13.0058 13.899L12.4459 15.1821L12.4528 15.1852L12.4598 15.1881L13.0058 13.899ZM11.5883 12.9963L12.5142 11.9462L12.509 11.9416L11.5883 12.9963ZM11.2616 12.6849L12.2346 11.6783L12.2299 11.6738L11.2616 12.6849ZM10.3436 11.5437L11.5387 10.8145L11.5329 10.8051L10.3436 11.5437ZM10.2905 11.4582L11.4798 10.7196L11.4686 10.7016L11.4569 10.6839L10.2905 11.4582ZM10.1987 11.2737L8.84326 11.6241L8.85805 11.6813L8.87761 11.7371L10.1987 11.2737ZM10.2536 11.0352L9.21998 10.0909L9.20006 10.1127L9.18109 10.1354L10.2536 11.0352ZM10.574 10.6662L9.47316 9.80124L9.47263 9.80192L10.574 10.6662ZM10.8107 10.3305L9.6214 9.59187L9.62007 9.59402L10.8107 10.3305ZM10.8944 9.8481L9.59876 10.3785L9.59933 10.3799L10.8944 9.8481ZM10.1132 8.0112L8.83191 8.57535L8.83216 8.57592L10.1132 8.0112ZM9.75951 7.7871L9.92563 6.39694L9.91411 6.39566L9.75951 7.7871ZM9.61371 7.7727L9.71713 6.37652L9.70016 6.37527L9.68318 6.37442L9.61371 7.7727ZM9.25101 7.7763L9.1538 6.37968L9.29949 9.17546L9.25101 7.7763ZM12.5 4.4C16.6975 4.4 20.1 7.8025 20.1 12H22.9C22.9 6.2561 18.2439 1.6 12.5 1.6V4.4ZM20.1 12C20.1 16.1975 16.6975 19.6 12.5 19.6V22.4C18.2439 22.4 22.9 17.7439 22.9 12H20.1ZM12.4977 19.6C11.1558 19.6022 9.83747 19.247 8.6782 18.5711L7.26781 20.9899C8.85652 21.9163 10.6632 22.403 12.5023 22.4L12.4977 19.6ZM7.60448 18.4299L3.13509 19.6494L3.87214 22.3506L8.34154 21.1311L7.60448 18.4299ZM4.85448 21.3676L6.07128 16.8964L3.36954 16.1612L2.15274 20.6324L4.85448 21.3676ZM5.92967 15.8233C5.25317 14.6637 4.89777 13.3448 4.90001 12.0023L2.10001 11.9977C2.09694 13.8375 2.58402 15.645 3.51115 17.2343L5.92967 15.8233ZM4.90001 12C4.90001 7.8025 8.30251 4.4 12.5 4.4V1.6C6.75611 1.6 2.10001 6.2561 2.10001 12H4.90001ZM9.37685 6.37112L9.19685 6.37832L9.30876 9.17608L9.48876 9.16888L9.37685 6.37112ZM9.16771 6.37979C8.86255 6.39837 8.56432 6.47854 8.29097 6.61547L9.54504 9.11893C9.48046 9.15128 9.41 9.17022 9.33791 9.17461L9.16771 6.37979ZM8.22815 6.64896C8.01306 6.77077 7.81672 6.92303 7.64522 7.10103L9.6616 9.04376C9.6458 9.06017 9.6277 9.0742 9.60787 9.08543L8.22815 6.64896ZM7.69363 7.05317C7.48331 7.25122 7.34141 7.45181 7.3084 7.49477L9.52862 9.20083C9.62701 9.07278 9.60751 9.09697 9.61318 9.09163L7.69363 7.05317ZM7.30878 7.49427C6.78621 8.1737 6.50485 9.00784 6.50913 9.86498L9.30909 9.85101C9.30792 9.61611 9.38503 9.38752 9.52824 9.20132L7.30878 7.49427ZM6.50912 9.86371C6.5119 10.545 6.68927 11.1687 6.92867 11.7025L9.48355 10.5569C9.36295 10.2879 9.30992 10.053 9.3091 9.85228L6.50912 9.86371ZM6.93106 11.7078C7.37974 12.6973 8.09177 13.6931 8.99083 14.5891L10.9674 12.6059C10.268 11.9089 9.76868 11.1856 9.48115 10.5515L6.93106 11.7078ZM8.99148 14.5898C9.16666 14.7641 9.39474 14.9966 9.63891 15.2116L11.4893 13.1102C11.3267 12.967 11.1768 12.8143 10.9667 12.6052L8.99148 14.5898ZM9.63897 15.2117C10.7955 16.2299 12.1737 16.9643 13.664 17.3562L14.3762 14.6483C13.3073 14.3672 12.3188 13.8405 11.4892 13.1101L9.63897 15.2117ZM13.8081 17.3862L14.3193 17.4645L14.7433 14.6967L14.2321 14.6184L13.8081 17.3862ZM14.4557 17.4786C14.7151 17.4926 14.9856 17.4728 15.0994 17.4673L14.964 14.6705C14.743 14.6812 14.6805 14.6866 14.6069 14.6826L14.4557 17.4786ZM15.1039 17.467C15.5709 17.4429 16.0269 17.3165 16.4396 17.0966L15.1232 14.6254C15.0726 14.6523 15.0168 14.6678 14.9595 14.6708L15.1039 17.467ZM16.4225 17.1056C16.5783 17.0253 16.7304 16.938 16.8782 16.8438L15.374 14.4822C15.2982 14.5305 15.2202 14.5752 15.1403 14.6164L16.4225 17.1056ZM16.1261 15.663C16.89 16.8362 16.8901 16.8361 16.8902 16.8361C16.8902 16.8361 16.8903 16.836 16.8904 16.836C16.8905 16.8359 16.8906 16.8358 16.8907 16.8358C16.8909 16.8356 16.8911 16.8355 16.8914 16.8353C16.8918 16.835 16.8923 16.8347 16.8927 16.8344C16.8937 16.8338 16.8946 16.8332 16.8956 16.8325C16.8977 16.8312 16.8998 16.8298 16.9021 16.8282C16.9067 16.8252 16.912 16.8217 16.9177 16.8178C16.9293 16.8099 16.9432 16.8004 16.9594 16.7891C16.9917 16.7664 17.033 16.7365 17.083 16.6987L15.3943 14.4653C15.3704 14.4833 15.3555 14.4939 15.35 14.4978C15.3473 14.4997 15.3469 14.4999 15.3489 14.4986C15.3499 14.4979 15.3515 14.4968 15.3537 14.4954C15.3548 14.4946 15.3561 14.4938 15.3575 14.4929C15.3582 14.4924 15.3589 14.4919 15.3597 14.4914C15.3601 14.4911 15.3605 14.4909 15.3609 14.4906C15.3611 14.4905 15.3613 14.4903 15.3615 14.4902C15.3616 14.4901 15.3617 14.4901 15.3618 14.49C15.3619 14.49 15.362 14.4899 15.362 14.4899C15.3621 14.4898 15.3622 14.4898 16.1261 15.663ZM17.0719 16.707C17.2464 16.5777 17.3828 16.4623 17.5469 16.2909L15.5243 14.3547C15.497 14.3832 15.4842 14.3947 15.4764 14.4015C15.467 14.4097 15.4492 14.4245 15.4053 14.457L17.0719 16.707ZM17.543 16.295C17.7172 16.1145 17.8702 15.9004 17.9876 15.655L15.4616 14.447C15.48 14.4086 15.5034 14.3763 15.5282 14.3506L17.543 16.295ZM17.9875 15.6553C18.1485 15.3187 18.2449 14.8731 18.2832 14.563L15.5044 14.2196C15.4978 14.2725 15.4847 14.3425 15.4681 14.4079C15.4601 14.4392 15.4532 14.4618 15.449 14.4745C15.4435 14.4908 15.4466 14.4783 15.4617 14.4467L17.9875 15.6553ZM18.2836 14.5598C18.319 14.2676 18.3089 14.0805 18.305 13.993L15.5078 14.1182C15.5096 14.1585 15.5094 14.1542 15.5094 14.1589C15.5093 14.162 15.509 14.1814 15.504 14.2228L18.2836 14.5598ZM18.3054 14.0033C18.2903 13.5982 18.1256 13.2827 17.9766 13.0819C17.824 12.8762 17.6117 12.686 17.3459 12.5572L16.1249 15.077C15.9464 14.9905 15.8178 14.8714 15.728 14.7503C15.6417 14.6341 15.5189 14.4167 15.5074 14.1079L18.3054 14.0033ZM17.3083 12.5397L16.7845 12.3048L15.6387 14.8596L16.1625 15.0945L17.3083 12.5397ZM16.2116 13.5822C16.7707 12.2987 16.7707 12.2987 16.7707 12.2987C16.7707 12.2987 16.7707 12.2987 16.7707 12.2987C16.7707 12.2987 16.7707 12.2987 16.7706 12.2987C16.7706 12.2986 16.7704 12.2986 16.7703 12.2985C16.7699 12.2983 16.7694 12.2981 16.7687 12.2978C16.7673 12.2972 16.7651 12.2962 16.7622 12.295C16.7565 12.2925 16.748 12.2888 16.737 12.284C16.715 12.2744 16.6829 12.2604 16.6428 12.2428C16.5627 12.2078 16.4508 12.1588 16.3242 12.103C16.0694 11.9909 15.7606 11.8541 15.5295 11.7489L14.3701 14.2976C14.6178 14.4103 14.9399 14.5529 15.1963 14.6658C15.3253 14.7226 15.4391 14.7725 15.5207 14.8082C15.5616 14.826 15.5944 14.8403 15.617 14.8502C15.6284 14.8552 15.6371 14.859 15.6431 14.8616C15.6461 14.8629 15.6484 14.8639 15.65 14.8646C15.6508 14.865 15.6514 14.8652 15.6518 14.8654C15.652 14.8655 15.6522 14.8656 15.6523 14.8656C15.6523 14.8656 15.6524 14.8657 15.6524 14.8657C15.6524 14.8657 15.6524 14.8657 15.6524 14.8657C15.6525 14.8657 15.6525 14.8657 16.2116 13.5822ZM15.51 11.7403C15.3031 11.6499 15.0814 11.5983 14.8559 11.5879L14.727 14.3849C14.6106 14.3795 14.4963 14.3529 14.3896 14.3063L15.51 11.7403ZM14.9344 11.5937C14.6741 11.567 14.4111 11.5963 14.1631 11.6796L15.0548 14.3338C14.9241 14.3777 14.7855 14.3932 14.6484 14.3791L14.9344 11.5937ZM14.1631 11.6796C13.915 11.7629 13.6877 11.8984 13.4963 12.0769L15.4061 14.1245C15.3053 14.2185 15.1855 14.2899 15.0548 14.3338L14.1631 11.6796ZM14.9712 11.8008C14.5829 11.6455 14.2464 11.7077 14.1022 11.7448C13.9431 11.7856 13.8269 11.8456 13.7715 11.8763C13.6581 11.9391 13.579 12.004 13.5537 12.0249C13.4912 12.0766 13.4439 12.1249 13.4266 12.1426C13.3821 12.1883 13.3331 12.243 13.2809 12.3029C13.1708 12.4291 12.983 12.6512 12.656 13.0474L14.8154 14.8297C15.1391 14.4376 15.3069 14.2398 15.3907 14.1437C15.4354 14.0925 15.443 14.0854 15.4314 14.0973C15.4305 14.0982 15.3939 14.1366 15.338 14.1828C15.3161 14.2009 15.2394 14.2641 15.1277 14.3259C15.0731 14.3562 14.9576 14.4159 14.799 14.4566C14.6554 14.4936 14.3192 14.5557 13.9313 14.4006L14.9712 11.8008ZM12.6126 13.1028C12.7412 12.9299 12.9184 12.7993 13.1216 12.7275L14.0543 15.3676C14.3754 15.2541 14.6555 15.0476 14.8588 14.7744L12.6126 13.1028ZM13.1216 12.7275C13.3248 12.6557 13.5447 12.6461 13.7534 12.6998L13.0556 15.4114C13.3855 15.4963 13.7331 15.481 14.0543 15.3676L13.1216 12.7275ZM13.7671 12.7034C13.7723 12.7047 13.7773 12.7065 13.7822 12.7086L12.683 15.2838C12.7996 15.3336 12.9195 15.375 13.0419 15.4078L13.7671 12.7034ZM13.774 12.7051C13.6282 12.644 13.6987 12.6721 13.5518 12.6098L12.4598 15.1881C12.4659 15.1907 12.6138 15.2548 12.6912 15.2873L13.774 12.7051ZM13.5657 12.6158C13.1826 12.4486 12.8278 12.2227 12.5142 11.9462L10.6624 14.0464C11.1942 14.5153 11.796 14.8985 12.4459 15.1821L13.5657 12.6158ZM12.509 11.9416C12.4312 11.8737 12.3826 11.8213 12.2346 11.6783L10.2886 13.6915C10.3566 13.7573 10.5186 13.9209 10.6676 14.0509L12.509 11.9416ZM12.2299 11.6738C11.9633 11.4185 11.731 11.1296 11.5387 10.8145L9.1485 12.2729C9.46693 12.7948 9.85174 13.2731 10.2933 13.696L12.2299 11.6738ZM11.5329 10.8051L11.4798 10.7196L9.1012 12.1968L9.1543 12.2823L11.5329 10.8051ZM11.4569 10.6839C11.483 10.7233 11.5042 10.7657 11.5198 10.8103L8.87761 11.7371C8.9389 11.9118 9.0217 12.0782 9.12413 12.2325L11.4569 10.6839ZM11.5542 10.9233C11.6372 11.2444 11.5623 11.5077 11.5051 11.6445C11.4752 11.7161 11.4421 11.7737 11.4139 11.8171C11.3993 11.8395 11.3846 11.8603 11.3702 11.8795C11.363 11.8892 11.3557 11.8986 11.3484 11.9078C11.3447 11.9124 11.341 11.917 11.3373 11.9215C11.3355 11.9238 11.3336 11.926 11.3317 11.9283C11.3308 11.9294 11.3299 11.9305 11.3289 11.9317C11.3285 11.9322 11.328 11.9328 11.3275 11.9333C11.3273 11.9336 11.327 11.934 11.3268 11.9342C11.3265 11.9346 11.3261 11.935 10.2536 11.0352C9.18109 10.1354 9.18073 10.1358 9.18038 10.1362C9.18026 10.1363 9.17991 10.1368 9.17967 10.1371C9.17919 10.1376 9.17872 10.1382 9.17824 10.1388C9.17728 10.1399 9.17631 10.1411 9.17534 10.1423C9.17339 10.1446 9.1714 10.147 9.16938 10.1495C9.16534 10.1544 9.16116 10.1596 9.15685 10.165C9.14825 10.1759 9.13908 10.1877 9.12947 10.2005C9.11035 10.226 9.08898 10.2561 9.06656 10.2906C9.02268 10.3581 8.96946 10.4504 8.92153 10.5652C8.82837 10.7882 8.72606 11.1707 8.84326 11.6241L11.5542 10.9233ZM10.2536 11.0352C11.2872 11.9794 11.2873 11.9794 11.2873 11.9794C11.2873 11.9794 11.2873 11.9794 11.2873 11.9794C11.2873 11.9793 11.2874 11.9793 11.2874 11.9792C11.2875 11.9792 11.2876 11.9791 11.2877 11.979C11.2879 11.9787 11.2881 11.9785 11.2884 11.9781C11.2891 11.9775 11.2899 11.9766 11.2909 11.9754C11.2929 11.9732 11.2958 11.9701 11.2993 11.9662C11.3064 11.9584 11.3163 11.9474 11.3285 11.934C11.3527 11.9072 11.3862 11.8698 11.4235 11.8278C11.4904 11.7523 11.5958 11.6318 11.6754 11.5305L9.47263 9.80192C9.45048 9.83015 9.39571 9.89423 9.32784 9.97082C9.29773 10.0048 9.27022 10.0354 9.25024 10.0576C9.24031 10.0686 9.23238 10.0773 9.2271 10.0831C9.22447 10.086 9.2225 10.0882 9.22128 10.0895C9.22068 10.0902 9.22026 10.0906 9.22004 10.0909C9.21992 10.091 9.21986 10.0911 9.21985 10.0911C9.21985 10.0911 9.21986 10.0911 9.21988 10.0911C9.21989 10.091 9.2199 10.091 9.21992 10.091C9.21993 10.091 9.21994 10.091 9.21995 10.091C9.21996 10.091 9.21998 10.0909 10.2536 11.0352ZM11.6749 11.5311C11.8057 11.3646 11.9195 11.1993 12.0013 11.067L9.62007 9.59402C9.59394 9.63627 9.54029 9.71581 9.47316 9.80124L11.6749 11.5311ZM12 11.0691C12.2314 10.6965 12.4832 10.0317 12.1895 9.31634L9.59933 10.3799C9.50743 10.156 9.51257 9.95674 9.53493 9.831C9.55695 9.70722 9.59892 9.62809 9.6214 9.59188L12 11.0691ZM12.1901 9.31771C11.9331 8.69 11.6672 8.06564 11.3943 7.44647L8.83216 8.57592C9.09561 9.17355 9.35172 9.77499 9.59876 10.3785L12.1901 9.31771ZM11.3945 7.44704C11.2171 7.04422 10.9191 6.79873 10.6969 6.66377C10.4645 6.52261 10.1985 6.4296 9.92562 6.39699L9.59339 9.17721C9.46358 9.16169 9.34792 9.12044 9.24332 9.0569C9.14891 8.99956 8.95617 8.85758 8.83191 8.57535L11.3945 7.44704ZM9.91411 6.39566C9.86983 6.39074 9.79566 6.38234 9.71713 6.37652L9.51029 9.16887C9.52896 9.17025 9.55198 9.17265 9.6049 9.17853L9.91411 6.39566ZM9.68318 6.37442C9.50677 6.36566 9.33 6.36741 9.1538 6.37968L9.34822 9.17292C9.41346 9.16838 9.47892 9.16773 9.54424 9.17097L9.68318 6.37442ZM9.29949 9.17546L9.48129 9.16916L9.38432 6.37084L9.20252 6.37714L9.29949 9.17546Z" fill="black" fill-opacity="0.2" mask="url(#path-1-inside-1_4144_10108)"/>
</g>
</g>
</svg>
