<svg width="22" height="22" viewBox="0 0 22 22" fill="none" xmlns="http://www.w3.org/2000/svg">
<path id="Vector_WA" d="M8.72334 5.84243C9.05341 6.59119 9.37476 7.34579 9.68515 8.10402L8.72334 5.84243ZM8.72334 5.84243C8.72338 5.84253 8.72342 5.84262 8.72346 5.84272L8.08301 6.12471L8.72334 5.84243ZM5.11439 10.2254L5.11319 10.2227C4.86354 9.66599 4.69167 9.04422 4.68892 8.38521M5.11439 10.2254L4.68892 8.38521M5.11439 10.2254C5.60458 11.3064 6.39804 12.425 7.42477 13.4483L7.4251 13.4486M5.11439 10.2254L7.4251 13.4486M4.68892 8.38521C4.68892 8.3853 4.68892 8.38539 4.68892 8.38549L5.38891 8.38199L4.68892 8.38485C4.68892 8.38497 4.68892 8.38509 4.68892 8.38521ZM7.4251 13.4486C7.4563 13.4797 7.48795 13.5113 7.52004 13.5433C7.7211 13.7442 7.93935 13.9622 8.17131 14.1665L8.17134 14.1665M7.4251 13.4486L8.17134 14.1665M8.17134 14.1665C9.46682 15.3071 11.0106 16.1296 12.6798 16.5687L12.7155 16.578M8.17134 14.1665L12.7155 16.578M12.7155 16.578L12.7519 16.5836M12.7155 16.578L12.7519 16.5836M12.7519 16.5836L13.3767 16.6793L13.4107 16.6845M12.7519 16.5836L13.4107 16.6845M13.4107 16.6845L13.4449 16.6864M13.4107 16.6845L13.4449 16.6864M13.4449 16.6864C13.6545 16.6977 13.868 16.6862 14.0363 16.6771C14.0687 16.6753 14.0994 16.6737 14.1281 16.6723L14.1304 16.6722M13.4449 16.6864L14.1304 16.6722M14.1304 16.6722C14.5515 16.6504 14.9628 16.5368 15.3352 16.3392C15.4969 16.2558 15.6546 16.1651 15.808 16.0674L15.808 16.0674M14.1304 16.6722L15.808 16.0674M15.808 16.0674L15.8139 16.0636M15.808 16.0674L15.8139 16.0636M15.8139 16.0636L15.4319 15.477M15.8139 16.0636L15.4319 15.477M15.4319 15.477L15.814 16.0635M15.4319 15.477L15.814 16.0635M15.814 16.0635L15.814 16.0635M15.814 16.0635L15.814 16.0635M15.814 16.0635L15.8142 16.0634M15.814 16.0635L15.8142 16.0634M15.8142 16.0634L15.8146 16.0631M15.8142 16.0634L15.8146 16.0631M15.8146 16.0631L15.8153 16.0627M15.8146 16.0631L15.8153 16.0627M15.8153 16.0627L15.817 16.0615M15.8153 16.0627L15.817 16.0615M15.817 16.0615L15.8212 16.0588M15.817 16.0615L15.8212 16.0588M15.8212 16.0588L15.8329 16.0509M15.8212 16.0588L15.8329 16.0509M15.8329 16.0509C15.8422 16.0447 15.8543 16.0364 15.8692 16.0259M15.8329 16.0509L15.8692 16.0259M15.8692 16.0259C15.8985 16.0053 15.9385 15.9764 15.9889 15.9384M15.8692 16.0259L15.9889 15.9384M15.9889 15.9384C16.162 15.81 16.2835 15.7066 16.437 15.5464C16.5777 15.4004 16.7006 15.2281 16.7948 15.0311L15.9889 15.9384ZM11 21.3L10.9989 21.3C9.17921 21.3029 7.39157 20.8214 5.81961 19.9048L5.56599 19.7569L5.28275 19.8342L1.00137 21.0024L2.16705 16.719L2.2441 16.4359L2.09625 16.1825C1.17891 14.61 0.696974 12.8216 0.700015 11.0012V11C0.700015 5.3113 5.31131 0.7 11 0.7C16.6887 0.7 21.3 5.3113 21.3 11C21.3 16.6887 16.6887 21.3 11 21.3ZM8.96276 10.079C9.03924 9.99211 9.13046 9.88632 9.19643 9.80227L17.0851 13.4862C17.0851 13.485 17.085 13.4838 17.085 13.4827C17.0753 13.247 16.9783 13.0551 16.8816 12.9248C16.7826 12.7914 16.6463 12.6706 16.4818 12.5909L16.4725 12.5864L16.463 12.5822L15.8228 12.2951L15.8229 12.295L15.816 12.292L15.5364 12.9338L15.816 12.292L15.8159 12.292L15.8158 12.292L15.8153 12.2918L15.8133 12.2909L15.8053 12.2874L15.7741 12.2738L15.6583 12.2232C15.5598 12.1801 15.4224 12.1199 15.2667 12.0514C14.9547 11.9141 14.5725 11.7447 14.284 11.6135L14.2841 11.6134L14.2743 11.6092C14.1407 11.5508 13.9979 11.5164 13.8524 11.5074C13.6843 11.4928 13.5148 11.5131 13.3546 11.5669C13.2066 11.6166 13.0696 11.694 12.9507 11.7948C12.9425 11.8012 12.9362 11.8064 12.9322 11.8097C12.8985 11.8375 12.8711 11.8652 12.8565 11.8802C12.8223 11.9152 12.7774 11.9649 12.7163 12.035C12.6055 12.1619 12.4185 12.3824 12.1004 12.7666C12.0589 12.7489 12.0339 12.738 12.0082 12.7268C11.9793 12.7142 11.9497 12.7012 11.8948 12.6779C11.3315 12.4317 10.8098 12.0993 10.3487 11.6927L10.3461 11.6904C10.2613 11.6163 10.1865 11.5429 10.0969 11.4549C10.0589 11.4176 10.0182 11.3776 9.97293 11.3338L9.97057 11.3315C9.58192 10.9593 9.24316 10.5383 8.96276 10.079ZM6.98047 5.14061C6.74659 5.15595 6.51811 5.21793 6.30849 5.32293L6.29257 5.33091L6.27708 5.33968C6.10402 5.43768 5.94563 5.5595 5.80652 5.70155C5.65473 5.84655 5.55096 5.98438 5.48517 6.07177C5.47472 6.08566 5.46523 6.09827 5.45665 6.10943C5.45659 6.10952 5.45652 6.1096 5.45646 6.10968L6.98047 5.14061Z" stroke="#FAFAFA" stroke-width="1.4"/>
</svg>
