<svg width="31" height="22" viewBox="0 0 31 22" fill="none" xmlns="http://www.w3.org/2000/svg">
<g id="icon_house done">
<path id="Vector 22" d="M3.16774 7.42857C3.10753 8.02381 3.20387 9.21429 4.07097 9.21429M4.07097 9.21429C4.93806 9.21429 18.4022 9.21429 25.0258 9.21429M4.07097 9.21429C3.76989 9.21429 3.16774 9.5 3.16774 10.6429C3.16774 11.7857 3.76989 12.1905 4.07097 12.25M25.0258 9.21429C25.5075 9.27381 26.4348 8.96429 26.2903 7.25M25.0258 9.21429C25.4473 9.33333 26.2903 9.78571 26.2903 10.6429C26.2903 11.5 25.5677 12.0714 25.2065 12.25M26.2903 7.25H29L23.9419 1H5.51613L1 7.25H26.2903ZM25.2065 12.25H17.9806M25.2065 12.25C25.5677 12.4286 26.2903 12.9286 26.2903 13.5C26.2903 14.0714 25.6882 14.8095 25.3871 15.1071M17.9806 12.25V10.6429H11.6581V12.25M17.9806 12.25V15.1071M11.6581 12.25H4.07097M11.6581 12.25V15.1071M4.07097 12.25C3.76989 12.3095 3.16774 12.6786 3.16774 13.6786C3.16774 14.6786 3.76989 15.0476 4.07097 15.1071M25.3871 15.1071H17.9806M25.3871 15.1071C25.6882 15.2262 26.2903 15.6429 26.2903 16.3571C26.2903 17.0714 25.5677 17.6071 25.2065 17.7857M17.9806 15.1071V17.7857M4.07097 15.1071H11.6581M4.07097 15.1071C3.76989 15.1667 3.16774 15.5357 3.16774 16.5357C3.16774 17.5357 3.76989 17.7857 4.07097 17.7857M11.6581 15.1071V17.7857M25.2065 17.7857H17.9806M25.2065 17.7857C25.5677 17.9048 26.3265 18.3929 26.471 19.3929C26.6155 20.3929 25.8086 20.881 25.3871 21H17.9806M17.9806 17.7857V21M4.07097 17.7857H11.6581M4.07097 17.7857C3.64946 17.9643 2.84258 18.5357 2.9871 19.3929C3.13161 20.25 3.76989 20.8214 4.07097 21H11.6581M11.6581 17.7857V21M11.6581 21H17.9806M16.7161 16.1786V16.8929H17.2581V16.1786H16.7161Z" stroke="#212125"/>
<g id="Group 2">
<g id="Ellipse 4">
<circle cx="15" cy="14.5033" r="5.5" fill="#FAFAFA"/>
<circle cx="15" cy="14.5033" r="5.5" stroke="#2C6849"/>
<circle cx="15" cy="14.5033" r="5.5" stroke="black" stroke-opacity="0.2"/>
</g>
<g id="Vector 23">
<path d="M13 14.3448L14.4286 16L17 12" stroke="#2C6849"/>
<path d="M13 14.3448L14.4286 16L17 12" stroke="black" stroke-opacity="0.2"/>
</g>
</g>
</g>
</svg>
