<svg width="30" height="32" viewBox="0 0 30 32" fill="none" xmlns="http://www.w3.org/2000/svg">
<path id="Vector 17" d="M1 22.9718V9.23944L15.1069 1M1 22.9718L5.91603 25.7695M1 22.9718L5.88315 20.1928M15.1069 14.9437V1M15.1069 14.9437L18.313 16.7963M15.1069 14.9437L10.7663 17.4139M15.1069 1L29 9.23944V22.9718M29 22.9718L25.1527 20.7486M29 22.9718L24.1908 25.7508M5.91603 25.7695L19.3817 17.4139M5.91603 25.7695L10.5115 28.3848M19.3817 17.4139L18.313 16.7963M19.3817 17.4139L21.7328 18.7725M10.5115 28.3848L15.1069 31L19.6489 28.3754M10.5115 28.3848L24.1908 20.1928M24.1908 20.1928L25.1527 20.7486M24.1908 20.1928L21.7328 18.7725M25.1527 20.7486V10.7183L21.7328 8.71127M18.313 16.7963V6.70423L21.7328 8.71127M21.7328 8.71127V18.7725M10.7663 17.4139L24.1908 25.7508M10.7663 17.4139L5.88315 20.1928M24.1908 25.7508L19.6489 28.3754M5.88315 20.1928L19.6489 28.3754M5.91603 10.2958V15.3662L11.0458 12.4085V7.5493L5.91603 10.2958Z" stroke="#212125"/>
</svg>
