<svg width="32" height="32" viewBox="0 0 32 32" fill="none" xmlns="http://www.w3.org/2000/svg">
<path d="M4.16774 12.4286C4.10753 13.0238 4.20387 14.2143 5.07097 14.2143M5.07097 14.2143C5.93806 14.2143 19.4022 14.2143 26.0258 14.2143M5.07097 14.2143C4.76989 14.2143 4.16774 14.5 4.16774 15.6429C4.16774 16.7857 4.76989 17.1905 5.07097 17.25M26.0258 14.2143C26.5075 14.2738 27.4348 13.9643 27.2903 12.25M26.0258 14.2143C26.4473 14.3333 27.2903 14.7857 27.2903 15.6429C27.2903 16.5 26.5677 17.0714 26.2065 17.25M27.2903 12.25H30L24.9419 6H6.51613L2 12.25H27.2903ZM26.2065 17.25H18.9806M26.2065 17.25C26.5677 17.4286 27.2903 17.9286 27.2903 18.5C27.2903 19.0714 26.6882 19.8095 26.3871 20.1071M18.9806 17.25V15.6429H12.6581V17.25M18.9806 17.25V20.1071M12.6581 17.25H5.07097M12.6581 17.25V20.1071M5.07097 17.25C4.76989 17.3095 4.16774 17.6786 4.16774 18.6786C4.16774 19.6786 4.76989 20.0476 5.07097 20.1071M26.3871 20.1071H18.9806M26.3871 20.1071C26.6882 20.2262 27.2903 20.6429 27.2903 21.3571C27.2903 22.0714 26.5677 22.6071 26.2065 22.7857M18.9806 20.1071V22.7857M5.07097 20.1071H12.6581M5.07097 20.1071C4.76989 20.1667 4.16774 20.5357 4.16774 21.5357C4.16774 22.5357 4.76989 22.7857 5.07097 22.7857M12.6581 20.1071V22.7857M26.2065 22.7857H18.9806M26.2065 22.7857C26.5677 22.9048 27.3265 23.3929 27.471 24.3929C27.6155 25.3929 26.8086 25.881 26.3871 26H18.9806M18.9806 22.7857V26M5.07097 22.7857H12.6581M5.07097 22.7857C4.64946 22.9643 3.84258 23.5357 3.9871 24.3929C4.13161 25.25 4.76989 25.8214 5.07097 26H12.6581M12.6581 22.7857V26M12.6581 26H18.9806M17.7161 21.1786V21.8929H18.2581V21.1786H17.7161Z" stroke="#212125"/>
</svg>
