<svg width="32" height="32" viewBox="0 0 32 32" fill="none" xmlns="http://www.w3.org/2000/svg">
<path d="M11.7391 6H2V11H3.42029M11.7391 6V11M11.7391 6H20.2609M11.7391 11H20.2609M11.7391 11H3.42029M11.7391 11V14.6H3.42029M20.2609 6H30V11H28.7826M20.2609 6V11M20.2609 11H28.7826M20.2609 11V14.6H28.7826M3.42029 11V14.6M28.7826 11V14.6M28.7826 14.6V23M3.42029 14.6V23M3.42029 23V26H11.7391M3.42029 23H11.7391V26M11.7391 26H20.2609M20.2609 26H28.7826V23M20.2609 26V23H28.7826" stroke="#212125"/>
</svg>
