<svg width="32" height="24" viewBox="0 0 32 24" fill="none" xmlns="http://www.w3.org/2000/svg">
<path id="Vector 25" d="M4.14516 12.836C3.75806 11.2579 1.8871 9.21945 1 8.39751L5.59677 1C7.12903 1.73975 11.0645 3.21925 14.5484 3.21925M4.14516 12.836C4.79032 12.0141 6.12903 10.3702 6.32258 10.3702C6.56452 10.3702 8.25806 11.1099 8.25806 11.8497M4.14516 12.836C3.58065 13.4936 2.45161 14.858 2.45161 15.0553C2.45161 15.3018 3.41935 17.0279 4.62903 16.7814M14.5484 3.21925C12.6129 4.94534 9.08064 8.69341 10.4355 9.87701C12.129 11.3565 15.7581 6.42484 16 6.42484C16.1935 6.42484 22.0484 11.1921 24.9516 13.5758M14.5484 3.21925C15.2742 2.64389 16.871 1.54248 17.4516 1.73975C18.1774 1.98633 23.5 3.71242 28.8226 2.72609L31 9.87701C29.871 9.54823 27.0806 9.82769 24.9516 13.5758M24.9516 13.5758C25.5968 14.1511 26.6935 15.5977 25.9194 16.7814C25.6385 17.2108 24.9032 17.0473 23.9839 16.5782M18.9032 12.836C20.1878 13.9882 22.3695 15.7544 23.9839 16.5782M23.9839 16.5782C24.0645 16.9747 24.0806 17.965 23.5 18.754C23.2507 19.0928 22.3981 18.8074 21.3593 18.2609M17.2097 15.5484C18.2683 16.3459 19.9783 17.5342 21.3593 18.2609M21.3593 18.2609C21.6135 18.8362 21.9693 20.1349 21.3593 20.7267C21.0594 21.0176 20.0516 20.6849 18.9032 20.1444M15.5161 18.2609C16.3772 18.8041 17.7154 19.5854 18.9032 20.1444M18.9032 20.1444C19.3065 20.7495 19.871 22.0582 18.9032 22.4528C17.9355 22.8473 14.629 21.302 13.0968 20.4801M8.25806 11.8497C8.25806 12.5894 5.83871 16.5348 4.62903 16.7814M8.25806 11.8497C8.66129 11.7675 9.6129 11.7017 10.1935 12.0963C10.7742 12.4908 11.0806 13.4114 11.1613 13.8223M4.62903 16.7814C4.3871 19.7404 6.08065 19.2472 6.56452 19.2472M11.1613 13.8223C9.79032 15.6306 6.95161 19.2472 6.56452 19.2472M11.1613 13.8223C12.2097 14.2333 14.0161 15.3512 12.8548 16.5348M6.56452 19.2472C6.17742 21.2199 7.85484 21.3842 8.74194 21.2199M12.8548 16.5348C11.6935 17.7184 9.62903 20.1513 8.74194 21.2199M12.8548 16.5348C13.6613 16.7814 15.129 17.5211 14.5484 18.5074C13.9677 19.4938 11.7258 21.8774 10.6774 22.9459C9.87097 23.1103 8.35484 22.9953 8.74194 21.2199" stroke="#212125"/>
</svg>
