<svg width="20" height="13" viewBox="0 0 20 13" fill="none" xmlns="http://www.w3.org/2000/svg">
<g id="Vector">
<path id="Vector-6" d="M1.2002 5.40012C0.647911 5.40012 0.200195 5.84783 0.200195 6.40012C0.200195 6.9524 0.647911 7.40012 1.2002 7.40012V5.40012ZM18.8002 7.40012C19.3525 7.40012 19.8002 6.9524 19.8002 6.40012C19.8002 5.84783 19.3525 5.40012 18.8002 5.40012V7.40012ZM1.2002 10.2578C0.647911 10.2578 0.200195 10.7055 0.200195 11.2578C0.200195 11.8101 0.647911 12.2578 1.2002 12.2578V10.2578ZM18.8002 12.2578C19.3525 12.2578 19.8002 11.8101 19.8002 11.2578C19.8002 10.7055 19.3525 10.2578 18.8002 10.2578V12.2578ZM1.2002 0.200195C0.647911 0.200195 0.200195 0.647911 0.200195 1.2002C0.200195 1.75248 0.647911 2.2002 1.2002 2.2002V0.200195ZM18.8002 2.2002C19.3525 2.2002 19.8002 1.75248 19.8002 1.2002C19.8002 0.647911 19.3525 0.200195 18.8002 0.200195V2.2002ZM1.2002 7.40012H18.8002V5.40012H1.2002V7.40012ZM1.2002 12.2578H18.8002V10.2578H1.2002V12.2578ZM1.2002 2.2002H18.8002V0.200195H1.2002V2.2002Z" fill="#212125"/>
</g>
</svg>
