<svg width="32" height="24" viewBox="0 0 32 24" fill="none" xmlns="http://www.w3.org/2000/svg">
<g id="flag language">
<rect x="0.1" y="0.1" width="31.8" height="23.8" fill="#DE2910"/>
<rect x="0.1" y="0.1" width="31.8" height="23.8" stroke="#212125" stroke-width="0.2"/>
<path id="Vector" d="M9.41752 2.20751L10.1094 2.55929L10.663 2L10.5587 2.80039L11.2355 3.18182L10.4797 3.32411L10.3444 4.11858L9.98151 3.40711L9.22012 3.5168L9.75215 2.93478L9.41752 2.20751ZM13.8026 5.11364L13.468 5.83992L14 6.42292L13.2395 6.31225L12.8767 7.0247L12.7413 6.22925L11.9846 6.08696L12.6624 5.70553L12.5571 4.90613L13.1117 5.46542L13.8026 5.11364ZM12.903 8.84783L13.1549 9.61067L13.9229 9.62747L13.311 10.1146L13.5338 10.8883L12.903 10.4269L12.2723 10.8883L12.4941 10.1146L11.8822 9.62747L12.6502 9.61067L12.903 8.84783ZM9.41752 12.0889L10.1094 12.4407L10.663 11.8814L10.5587 12.6818L11.2355 13.0632L10.4797 13.2055L10.3444 14L9.98151 13.2885L9.22012 13.3982L9.75215 12.8162L9.41752 12.0889ZM5.52969 4.1581L6.40295 6.79743L9.05938 6.85474L6.94156 8.54249L7.71142 11.2164L5.52969 9.62055L3.34796 11.2164L4.11781 8.54249L2 6.85474L4.65643 6.79743L5.52969 4.1581Z" fill="#FFDE02"/>
</g>
</svg>
