<svg width="24" height="18" viewBox="0 0 24 18" fill="none" xmlns="http://www.w3.org/2000/svg">
<g id="flag language">
<g clip-path="url(#clip0_4067_2097)">
<rect width="24" height="18" fill="#0C5896"/>
<path id="Vector" d="M32 -3.14518C32 -3.83301 31.4362 -4.55175 30.7392 -4.71405C30.6609 -4.72951 30.5748 -4.75269 30.4965 -4.76815L16.581 3.59398V-5C13.527 -4.63677 10.473 -4.14215 7.41895 -3.77891V3.50124L-4.47612 -3.64753C-5.22788 -3.75573 -5.97964 -3.89484 -6.73923 -4.07259C-7.43618 -4.22716 -8 -3.83301 -8 -3.14518V-1.53768L2.02349 4.48275H-8V13.525H2.48551L-8 19.8236V21.1529C-8 21.8407 -7.43618 22.5595 -6.73923 22.7218C-6.50431 22.7759 -6.26938 22.8222 -6.04229 22.8686L7.41112 14.777V23C10.4652 22.6368 13.5192 22.1421 16.5732 21.7789V14.6765L28.0767 21.6012C28.9616 21.7171 29.8465 21.8717 30.7314 22.0803C31.4283 22.2426 31.9922 21.8485 31.9922 21.1606V19.7386L21.6633 13.5327H31.9922V4.49048H22.1253L31.9922 -1.43721C32 -2.01684 32 -2.58101 32 -3.14518Z" fill="#FF473E"/>
<path id="Vector_2" d="M23.7169 14.1838L31 18.7608V20.5579L20.8602 14.1838H17.0439L29.2666 21.8711C28.0317 21.6023 26.7893 21.4334 25.5544 21.3335L17.0215 15.9731V21.6253C16.5752 21.6791 16.1288 21.7329 15.6825 21.7943V12.8091H31V14.1914H23.7169V14.1838ZM6.97847 23C7.42482 22.9462 7.87118 22.8925 8.31754 22.8311V12.8014H-7V14.1838H0.431871L-7 18.853V20.65L3.28857 14.1838H6.97847V14.2606L-6.1296 22.5008C-6.02545 22.5546 -5.91386 22.6007 -5.80227 22.6314C-5.21457 22.7696 -4.62686 22.8925 -4.03915 22.9923L6.97847 16.0653V23ZM-7 3.81624V5.19858H8.31754V-3.78662C7.87118 -3.72518 7.42482 -3.67142 6.97847 -3.61766V2.21887L-1.88919 -3.35655C-3.16876 -3.47175 -4.44832 -3.66374 -5.72788 -3.97093L6.65858 3.81624H2.84221L-7 -2.37356V-0.576521L-0.00704765 3.81624H-7ZM17.0215 -5C16.5752 -4.94624 16.1288 -4.89248 15.6825 -4.83105V5.19858H31V3.81624H24.1558L31 -0.484366V-2.2814L21.2991 3.81624H17.4828L30.4049 -4.30883C30.2263 -4.46242 30.0255 -4.57762 29.8023 -4.63138C29.3634 -4.73889 28.9319 -4.82337 28.493 -4.90784L17.0215 2.30335V-5Z" fill="#F4F4F4"/>
</g>
<rect x="0.1" y="0.1" width="23.8" height="17.8" stroke="#8F98A9" stroke-width="0.2"/>
</g>
<defs>
<clipPath id="clip0_4067_2097">
<rect width="24" height="18" fill="white"/>
</clipPath>
</defs>
</svg>
