<svg width="33" height="32" viewBox="0 0 33 32" fill="none" xmlns="http://www.w3.org/2000/svg">
<g id="basil:vk-solid">
<path id="Vector" d="M29.172 24.5081H26.1293C24.9787 24.5081 24.632 23.5761 22.5693 21.5121C20.7667 19.7748 20.0053 19.5588 19.5493 19.5588C18.9187 19.5588 18.7467 19.7321 18.7467 20.6001V23.3361C18.7467 24.0761 18.5067 24.5095 16.5733 24.5095C14.6977 24.3834 12.8789 23.8137 11.2666 22.847C9.65437 21.8803 8.29483 20.5445 7.3 18.9495C4.93785 16.0095 3.29428 12.5589 2.5 8.87212C2.5 8.41612 2.67333 8.00279 3.54267 8.00279H6.58267C7.364 8.00279 7.64533 8.35079 7.952 9.15479C9.428 13.4988 11.9467 17.2775 12.9693 17.2775C13.3613 17.2775 13.532 17.1041 13.532 16.1268V11.6521C13.4027 9.61079 12.3187 9.43879 12.3187 8.70012C12.3324 8.50524 12.4215 8.32338 12.5672 8.19318C12.7128 8.06297 12.9035 7.99467 13.0987 8.00279H17.8773C18.5307 8.00279 18.7467 8.32812 18.7467 9.10945V15.1495C18.7467 15.8015 19.0267 16.0175 19.224 16.0175C19.616 16.0175 19.9173 15.8015 20.636 15.0841C22.1765 13.2054 23.435 11.1123 24.372 8.87079C24.4679 8.60166 24.6492 8.37128 24.8883 8.21481C25.1273 8.05833 25.411 7.98434 25.696 8.00412H28.7373C29.6493 8.00412 29.8427 8.46012 29.6493 9.11079C28.5432 11.5887 27.1744 13.9408 25.5667 16.1268C25.2387 16.6268 25.108 16.8868 25.5667 17.4735C25.868 17.9295 26.9347 18.8201 27.6507 19.6668C28.6933 20.7068 29.5587 21.9095 30.2133 23.2268C30.4747 24.0748 30.04 24.5081 29.172 24.5081Z" fill="#212125"/>
</g>
</svg>
