<svg width="45" height="44" viewBox="0 0 45 44" fill="none" xmlns="http://www.w3.org/2000/svg">
<g id="SM">
<rect x="0.5" width="44" height="44" rx="4" fill="none"/>
<path id="Vector_WA" d="M22.5 9C29.6799 9 35.5 14.8201 35.5 22C35.5 29.1799 29.6799 35 22.5 35C20.2026 35.0037 17.9457 34.3957 15.961 33.2385L9.50522 35L11.2628 28.5416C10.1046 26.5563 9.49618 24.2984 9.50002 22C9.50002 14.8201 15.3201 9 22.5 9ZM18.0696 15.89L17.8096 15.9004C17.6413 15.9106 17.4768 15.9549 17.326 16.0304C17.185 16.1103 17.0563 16.2101 16.9438 16.3268C16.7878 16.4737 16.6994 16.6011 16.6045 16.7246C16.1237 17.3498 15.8648 18.1173 15.8687 18.906C15.8713 19.543 16.0377 20.1631 16.2977 20.7429C16.8294 21.9155 17.7043 23.157 18.8587 24.3075C19.1369 24.5844 19.4099 24.8626 19.7037 25.1213C21.1381 26.3842 22.8474 27.2949 24.6957 27.7811L25.4341 27.8942C25.6746 27.9072 25.9151 27.889 26.1569 27.8773C26.5355 27.8577 26.9052 27.7552 27.2398 27.577C27.41 27.4893 27.5762 27.3939 27.7377 27.291C27.7377 27.291 27.7936 27.2546 27.9002 27.174C28.0757 27.044 28.1836 26.9517 28.3292 26.7996C28.4371 26.6878 28.5307 26.5565 28.6022 26.407C28.7036 26.1951 28.805 25.7908 28.8466 25.4541C28.8778 25.1967 28.8687 25.0563 28.8648 24.9692C28.8596 24.8301 28.7439 24.6858 28.6178 24.6247L27.8612 24.2854C27.8612 24.2854 26.7302 23.7927 26.0386 23.4781C25.9662 23.4465 25.8887 23.4284 25.8098 23.4248C25.7209 23.4157 25.631 23.4257 25.5462 23.4541C25.4615 23.4826 25.3838 23.5289 25.3184 23.5899C25.3119 23.5873 25.2248 23.6614 24.2849 24.8002C24.231 24.8727 24.1567 24.9275 24.0715 24.9576C23.9863 24.9877 23.894 24.9917 23.8065 24.9692C23.7218 24.9465 23.6388 24.9178 23.5582 24.8834C23.397 24.8158 23.3411 24.7898 23.2306 24.743C22.4845 24.4174 21.7937 23.9775 21.1831 23.4391C21.0193 23.2961 20.8672 23.1401 20.7112 22.9893C20.1998 22.4995 19.7541 21.9454 19.3852 21.3409L19.3085 21.2174C19.2534 21.1344 19.2089 21.0449 19.1759 20.9509C19.1265 20.7598 19.2552 20.6064 19.2552 20.6064C19.2552 20.6064 19.5711 20.2606 19.718 20.0734C19.861 19.8914 19.9819 19.7146 20.0599 19.5885C20.2133 19.3415 20.2614 19.088 20.1808 18.8917C19.8168 18.0025 19.4398 17.1172 19.0524 16.2384C18.9757 16.0642 18.7482 15.9394 18.5415 15.9147C18.4713 15.9069 18.4011 15.8991 18.3309 15.8939C18.1563 15.8852 17.9814 15.887 17.807 15.8991L18.0696 15.89Z" fill="#212125"/>
</g>
</svg>
